<svg xmlns="http://www.w3.org/2000/svg" xmlns:xlink="http://www.w3.org/1999/xlink" width="1920" zoomAndPan="magnify" viewBox="0 0 1440 359.999987" height="480" preserveAspectRatio="xMidYMid meet" version="1.0"><defs><g/></defs><rect x="-144" width="1728" fill="#ffffff" y="-35.999999" height="431.999984" fill-opacity="1"/><rect x="-144" width="1728" fill="#ffffff" y="-35.999999" height="431.999984" fill-opacity="1"/><rect x="-144" width="1728" fill="#ffffff" y="-35.999999" height="431.999984" fill-opacity="1"/><g fill="#0d276b" fill-opacity="1"><g transform="translate(24.354834, 154.315483)"><g><path d="M 37.890625 -14.6875 C 37.890625 -9.988281 36.195312 -6.242188 32.8125 -3.453125 C 29.425781 -0.660156 24.617188 0.734375 18.390625 0.734375 C 12.804688 0.734375 7.8125 -0.328125 3.40625 -2.453125 L 3.40625 -12.90625 C 5.925781 -11.8125 8.535156 -10.804688 11.234375 -9.890625 C 13.929688 -8.984375 16.613281 -8.53125 19.28125 -8.53125 C 22.050781 -8.53125 24.015625 -9.0625 25.171875 -10.125 C 26.335938 -11.1875 26.921875 -12.53125 26.921875 -14.15625 C 26.921875 -15.5 26.460938 -16.640625 25.546875 -17.578125 C 24.628906 -18.515625 23.40625 -19.390625 21.875 -20.203125 C 20.34375 -21.023438 18.585938 -21.90625 16.609375 -22.84375 C 15.367188 -23.4375 14.03125 -24.140625 12.59375 -24.953125 C 11.164062 -25.765625 9.796875 -26.773438 8.484375 -27.984375 C 7.179688 -29.203125 6.109375 -30.675781 5.265625 -32.40625 C 4.421875 -34.132812 4 -36.210938 4 -38.640625 C 4 -43.378906 5.601562 -47.070312 8.8125 -49.71875 C 12.03125 -52.363281 16.410156 -53.6875 21.953125 -53.6875 C 24.722656 -53.6875 27.34375 -53.363281 29.8125 -52.71875 C 32.28125 -52.082031 34.898438 -51.171875 37.671875 -49.984375 L 34.03125 -41.234375 C 31.613281 -42.222656 29.441406 -42.988281 27.515625 -43.53125 C 25.585938 -44.070312 23.609375 -44.34375 21.578125 -44.34375 C 19.453125 -44.34375 17.820312 -43.847656 16.6875 -42.859375 C 15.550781 -41.867188 14.984375 -40.582031 14.984375 -39 C 14.984375 -37.125 15.820312 -35.640625 17.5 -34.546875 C 19.175781 -33.460938 21.671875 -32.128906 24.984375 -30.546875 C 27.703125 -29.265625 30.015625 -27.929688 31.921875 -26.546875 C 33.828125 -25.160156 35.296875 -23.523438 36.328125 -21.640625 C 37.367188 -19.765625 37.890625 -17.445312 37.890625 -14.6875 Z M 37.890625 -14.6875 "/></g></g></g><g fill="#0d276b" fill-opacity="1"><g transform="translate(64.466882, 154.315483)"><g><path d="M 23.140625 -31.140625 L 34.1875 -52.953125 L 46.28125 -52.953125 L 28.703125 -20.609375 L 28.703125 0 L 17.578125 0 L 17.578125 -20.25 L 0 -52.953125 L 12.15625 -52.953125 Z M 23.140625 -31.140625 "/></g></g></g><g fill="#0d276b" fill-opacity="1"><g transform="translate(109.991482, 154.315483)"><g><path d="M 37.890625 -14.6875 C 37.890625 -9.988281 36.195312 -6.242188 32.8125 -3.453125 C 29.425781 -0.660156 24.617188 0.734375 18.390625 0.734375 C 12.804688 0.734375 7.8125 -0.328125 3.40625 -2.453125 L 3.40625 -12.90625 C 5.925781 -11.8125 8.535156 -10.804688 11.234375 -9.890625 C 13.929688 -8.984375 16.613281 -8.53125 19.28125 -8.53125 C 22.050781 -8.53125 24.015625 -9.0625 25.171875 -10.125 C 26.335938 -11.1875 26.921875 -12.53125 26.921875 -14.15625 C 26.921875 -15.5 26.460938 -16.640625 25.546875 -17.578125 C 24.628906 -18.515625 23.40625 -19.390625 21.875 -20.203125 C 20.34375 -21.023438 18.585938 -21.90625 16.609375 -22.84375 C 15.367188 -23.4375 14.03125 -24.140625 12.59375 -24.953125 C 11.164062 -25.765625 9.796875 -26.773438 8.484375 -27.984375 C 7.179688 -29.203125 6.109375 -30.675781 5.265625 -32.40625 C 4.421875 -34.132812 4 -36.210938 4 -38.640625 C 4 -43.378906 5.601562 -47.070312 8.8125 -49.71875 C 12.03125 -52.363281 16.410156 -53.6875 21.953125 -53.6875 C 24.722656 -53.6875 27.34375 -53.363281 29.8125 -52.71875 C 32.28125 -52.082031 34.898438 -51.171875 37.671875 -49.984375 L 34.03125 -41.234375 C 31.613281 -42.222656 29.441406 -42.988281 27.515625 -43.53125 C 25.585938 -44.070312 23.609375 -44.34375 21.578125 -44.34375 C 19.453125 -44.34375 17.820312 -43.847656 16.6875 -42.859375 C 15.550781 -41.867188 14.984375 -40.582031 14.984375 -39 C 14.984375 -37.125 15.820312 -35.640625 17.5 -34.546875 C 19.175781 -33.460938 21.671875 -32.128906 24.984375 -30.546875 C 27.703125 -29.265625 30.015625 -27.929688 31.921875 -26.546875 C 33.828125 -25.160156 35.296875 -23.523438 36.328125 -21.640625 C 37.367188 -19.765625 37.890625 -17.445312 37.890625 -14.6875 Z M 37.890625 -14.6875 "/></g></g></g><g fill="#0d276b" fill-opacity="1"><g transform="translate(150.103535, 154.315483)"><g><path d="M 27.0625 0 L 15.875 0 L 15.875 -43.609375 L 1.484375 -43.609375 L 1.484375 -52.953125 L 41.453125 -52.953125 L 41.453125 -43.609375 L 27.0625 -43.609375 Z M 27.0625 0 "/></g></g></g><g fill="#0d276b" fill-opacity="1"><g transform="translate(192.291626, 154.315483)"><g><path d="M 37.15625 0 L 6.671875 0 L 6.671875 -52.953125 L 37.15625 -52.953125 L 37.15625 -43.75 L 17.875 -43.75 L 17.875 -32.109375 L 35.8125 -32.109375 L 35.8125 -22.921875 L 17.875 -22.921875 L 17.875 -9.265625 L 37.15625 -9.265625 Z M 37.15625 0 "/></g></g></g><g fill="#0d276b" fill-opacity="1"><g transform="translate(233.070973, 154.315483)"><g><path d="M 29.0625 0 L 16.3125 -41.53125 L 16.015625 -41.53125 C 16.066406 -40.539062 16.140625 -39.054688 16.234375 -37.078125 C 16.335938 -35.097656 16.4375 -32.972656 16.53125 -30.703125 C 16.632812 -28.429688 16.6875 -26.40625 16.6875 -24.625 L 16.6875 0 L 6.671875 0 L 6.671875 -52.953125 L 21.953125 -52.953125 L 34.484375 -12.453125 L 34.703125 -12.453125 L 47.984375 -52.953125 L 63.25 -52.953125 L 63.25 0 L 52.796875 0 L 52.796875 -25.0625 C 52.796875 -26.75 52.832031 -28.675781 52.90625 -30.84375 C 52.976562 -33.019531 53.050781 -35.082031 53.125 -37.03125 C 53.207031 -38.988281 53.269531 -40.460938 53.3125 -41.453125 L 53.015625 -41.453125 L 39.375 0 Z M 29.0625 0 "/></g></g></g><g fill="#0d276b" fill-opacity="1"><g transform="translate(302.247662, 154.315483)"><g/></g></g><g fill="#0d276b" fill-opacity="1"><g transform="translate(335.754494, 154.315483)"><g><path d="M 39.078125 0 L 35.21875 -12.609375 L 15.9375 -12.609375 L 12.09375 0 L 0 0 L 18.6875 -53.171875 L 32.40625 -53.171875 L 51.171875 0 Z M 32.546875 -22.03125 L 28.703125 -34.328125 C 28.453125 -35.171875 28.128906 -36.234375 27.734375 -37.515625 C 27.335938 -38.804688 26.941406 -40.117188 26.546875 -41.453125 C 26.148438 -42.785156 25.828125 -43.945312 25.578125 -44.9375 C 25.335938 -43.945312 25.003906 -42.722656 24.578125 -41.265625 C 24.160156 -39.804688 23.765625 -38.421875 23.390625 -37.109375 C 23.023438 -35.804688 22.742188 -34.878906 22.546875 -34.328125 L 18.765625 -22.03125 Z M 32.546875 -22.03125 "/></g></g></g><g fill="#0d276b" fill-opacity="1"><g transform="translate(386.172627, 154.315483)"><g><path d="M 26.46875 0 L 2.375 0 L 2.375 -6.375 L 8.828125 -9.34375 L 8.828125 -43.609375 L 2.375 -46.5625 L 2.375 -52.953125 L 26.46875 -52.953125 L 26.46875 -46.5625 L 20.015625 -43.609375 L 20.015625 -9.34375 L 26.46875 -6.375 Z M 26.46875 0 "/></g></g></g><g fill="#0d276b" fill-opacity="1"><g transform="translate(414.273271, 154.315483)"><g><path d="M 22.09375 -52.953125 C 29.3125 -52.953125 34.640625 -51.640625 38.078125 -49.015625 C 41.515625 -46.398438 43.234375 -42.421875 43.234375 -37.078125 C 43.234375 -34.648438 42.773438 -32.535156 41.859375 -30.734375 C 40.941406 -28.929688 39.726562 -27.398438 38.21875 -26.140625 C 36.71875 -24.878906 35.101562 -23.851562 33.375 -23.0625 L 48.9375 0 L 36.484375 0 L 23.875 -20.3125 L 17.875 -20.3125 L 17.875 0 L 6.671875 0 L 6.671875 -52.953125 Z M 21.28125 -43.75 L 17.875 -43.75 L 17.875 -29.4375 L 21.5 -29.4375 C 25.207031 -29.4375 27.863281 -30.050781 29.46875 -31.28125 C 31.082031 -32.519531 31.890625 -34.351562 31.890625 -36.78125 C 31.890625 -39.300781 31.023438 -41.09375 29.296875 -42.15625 C 27.566406 -43.21875 24.894531 -43.75 21.28125 -43.75 Z M 21.28125 -43.75 "/></g></g></g><g fill="#0d276b" fill-opacity="1"><g transform="translate(462.467085, 154.315483)"><g><path d="M 29.140625 -44.34375 C 24.835938 -44.34375 21.550781 -42.734375 19.28125 -39.515625 C 17.007812 -36.304688 15.875 -31.910156 15.875 -26.328125 C 15.875 -20.691406 16.921875 -16.328125 19.015625 -13.234375 C 21.117188 -10.148438 24.492188 -8.609375 29.140625 -8.609375 C 31.265625 -8.609375 33.414062 -8.851562 35.59375 -9.34375 C 37.769531 -9.832031 40.117188 -10.523438 42.640625 -11.421875 L 42.640625 -2 C 40.316406 -1.0625 38.015625 -0.375 35.734375 0.0625 C 33.460938 0.507812 30.921875 0.734375 28.109375 0.734375 C 22.617188 0.734375 18.117188 -0.382812 14.609375 -2.625 C 11.097656 -4.875 8.5 -8.039062 6.8125 -12.125 C 5.132812 -16.207031 4.296875 -20.96875 4.296875 -26.40625 C 4.296875 -31.738281 5.257812 -36.457031 7.1875 -40.5625 C 9.113281 -44.664062 11.921875 -47.878906 15.609375 -50.203125 C 19.296875 -52.523438 23.804688 -53.6875 29.140625 -53.6875 C 31.765625 -53.6875 34.398438 -53.351562 37.046875 -52.6875 C 39.691406 -52.019531 42.222656 -51.117188 44.640625 -49.984375 L 41.015625 -40.859375 C 39.035156 -41.796875 37.039062 -42.609375 35.03125 -43.296875 C 33.03125 -43.992188 31.066406 -44.34375 29.140625 -44.34375 Z M 29.140625 -44.34375 "/></g></g></g><g fill="#0d276b" fill-opacity="1"><g transform="translate(508.955545, 154.315483)"><g><path d="M 54.734375 -26.546875 C 54.734375 -21.054688 53.828125 -16.269531 52.015625 -12.1875 C 50.210938 -8.113281 47.441406 -4.941406 43.703125 -2.671875 C 39.972656 -0.398438 35.242188 0.734375 29.515625 0.734375 C 23.773438 0.734375 19.039062 -0.398438 15.3125 -2.671875 C 11.582031 -4.941406 8.8125 -8.128906 7 -12.234375 C 5.195312 -16.335938 4.296875 -21.132812 4.296875 -26.625 C 4.296875 -32.113281 5.195312 -36.882812 7 -40.9375 C 8.8125 -44.988281 11.582031 -48.140625 15.3125 -50.390625 C 19.039062 -52.640625 23.800781 -53.765625 29.59375 -53.765625 C 35.320312 -53.765625 40.039062 -52.640625 43.75 -50.390625 C 47.457031 -48.140625 50.210938 -44.972656 52.015625 -40.890625 C 53.828125 -36.816406 54.734375 -32.035156 54.734375 -26.546875 Z M 16.09375 -26.546875 C 16.09375 -21.015625 17.15625 -16.648438 19.28125 -13.453125 C 21.40625 -10.265625 24.816406 -8.671875 29.515625 -8.671875 C 34.304688 -8.671875 37.738281 -10.265625 39.8125 -13.453125 C 41.894531 -16.648438 42.9375 -21.015625 42.9375 -26.546875 C 42.9375 -32.085938 41.894531 -36.453125 39.8125 -39.640625 C 37.738281 -42.828125 34.332031 -44.421875 29.59375 -44.421875 C 24.84375 -44.421875 21.40625 -42.828125 19.28125 -39.640625 C 17.15625 -36.453125 16.09375 -32.085938 16.09375 -26.546875 Z M 16.09375 -26.546875 "/></g></g></g><g fill="#0d276b" fill-opacity="1"><g transform="translate(567.232976, 154.315483)"><g><path d="M 53.609375 0 L 39.375 0 L 16.3125 -40.046875 L 16.015625 -40.046875 C 16.117188 -37.523438 16.226562 -35.003906 16.34375 -32.484375 C 16.46875 -29.960938 16.582031 -27.441406 16.6875 -24.921875 L 16.6875 0 L 6.671875 0 L 6.671875 -52.953125 L 20.84375 -52.953125 L 43.828125 -13.28125 L 44.046875 -13.28125 C 43.953125 -15.695312 43.851562 -18.113281 43.75 -20.53125 C 43.65625 -22.957031 43.582031 -25.40625 43.53125 -27.875 L 43.53125 -52.953125 L 53.609375 -52.953125 Z M 53.609375 0 "/></g></g></g><g fill="#0d276b" fill-opacity="1"><g transform="translate(626.770859, 154.315483)"><g><path d="M 50.578125 -27 C 50.578125 -18.050781 48.03125 -11.3125 42.9375 -6.78125 C 37.84375 -2.257812 30.75 0 21.65625 0 L 6.671875 0 L 6.671875 -52.953125 L 23.28125 -52.953125 C 28.820312 -52.953125 33.628906 -51.960938 37.703125 -49.984375 C 41.785156 -48.003906 44.953125 -45.085938 47.203125 -41.234375 C 49.453125 -37.378906 50.578125 -32.632812 50.578125 -27 Z M 38.9375 -26.703125 C 38.9375 -32.535156 37.648438 -36.832031 35.078125 -39.59375 C 32.503906 -42.363281 28.769531 -43.75 23.875 -43.75 L 17.875 -43.75 L 17.875 -9.265625 L 22.6875 -9.265625 C 33.519531 -9.265625 38.9375 -15.078125 38.9375 -26.703125 Z M 38.9375 -26.703125 "/></g></g></g><g fill="#0d276b" fill-opacity="1"><g transform="translate(680.89619, 154.315483)"><g><path d="M 26.46875 0 L 2.375 0 L 2.375 -6.375 L 8.828125 -9.34375 L 8.828125 -43.609375 L 2.375 -46.5625 L 2.375 -52.953125 L 26.46875 -52.953125 L 26.46875 -46.5625 L 20.015625 -43.609375 L 20.015625 -9.34375 L 26.46875 -6.375 Z M 26.46875 0 "/></g></g></g><g fill="#0d276b" fill-opacity="1"><g transform="translate(708.996835, 154.315483)"><g><path d="M 27.0625 0 L 15.875 0 L 15.875 -43.609375 L 1.484375 -43.609375 L 1.484375 -52.953125 L 41.453125 -52.953125 L 41.453125 -43.609375 L 27.0625 -43.609375 Z M 27.0625 0 "/></g></g></g><g fill="#0d276b" fill-opacity="1"><g transform="translate(751.184926, 154.315483)"><g><path d="M 26.46875 0 L 2.375 0 L 2.375 -6.375 L 8.828125 -9.34375 L 8.828125 -43.609375 L 2.375 -46.5625 L 2.375 -52.953125 L 26.46875 -52.953125 L 26.46875 -46.5625 L 20.015625 -43.609375 L 20.015625 -9.34375 L 26.46875 -6.375 Z M 26.46875 0 "/></g></g></g><g fill="#0d276b" fill-opacity="1"><g transform="translate(779.285571, 154.315483)"><g><path d="M 54.734375 -26.546875 C 54.734375 -21.054688 53.828125 -16.269531 52.015625 -12.1875 C 50.210938 -8.113281 47.441406 -4.941406 43.703125 -2.671875 C 39.972656 -0.398438 35.242188 0.734375 29.515625 0.734375 C 23.773438 0.734375 19.039062 -0.398438 15.3125 -2.671875 C 11.582031 -4.941406 8.8125 -8.128906 7 -12.234375 C 5.195312 -16.335938 4.296875 -21.132812 4.296875 -26.625 C 4.296875 -32.113281 5.195312 -36.882812 7 -40.9375 C 8.8125 -44.988281 11.582031 -48.140625 15.3125 -50.390625 C 19.039062 -52.640625 23.800781 -53.765625 29.59375 -53.765625 C 35.320312 -53.765625 40.039062 -52.640625 43.75 -50.390625 C 47.457031 -48.140625 50.210938 -44.972656 52.015625 -40.890625 C 53.828125 -36.816406 54.734375 -32.035156 54.734375 -26.546875 Z M 16.09375 -26.546875 C 16.09375 -21.015625 17.15625 -16.648438 19.28125 -13.453125 C 21.40625 -10.265625 24.816406 -8.671875 29.515625 -8.671875 C 34.304688 -8.671875 37.738281 -10.265625 39.8125 -13.453125 C 41.894531 -16.648438 42.9375 -21.015625 42.9375 -26.546875 C 42.9375 -32.085938 41.894531 -36.453125 39.8125 -39.640625 C 37.738281 -42.828125 34.332031 -44.421875 29.59375 -44.421875 C 24.84375 -44.421875 21.40625 -42.828125 19.28125 -39.640625 C 17.15625 -36.453125 16.09375 -32.085938 16.09375 -26.546875 Z M 16.09375 -26.546875 "/></g></g></g><g fill="#0d276b" fill-opacity="1"><g transform="translate(837.563047, 154.315483)"><g><path d="M 53.609375 0 L 39.375 0 L 16.3125 -40.046875 L 16.015625 -40.046875 C 16.117188 -37.523438 16.226562 -35.003906 16.34375 -32.484375 C 16.46875 -29.960938 16.582031 -27.441406 16.6875 -24.921875 L 16.6875 0 L 6.671875 0 L 6.671875 -52.953125 L 20.84375 -52.953125 L 43.828125 -13.28125 L 44.046875 -13.28125 C 43.953125 -15.695312 43.851562 -18.113281 43.75 -20.53125 C 43.65625 -22.957031 43.582031 -25.40625 43.53125 -27.875 L 43.53125 -52.953125 L 53.609375 -52.953125 Z M 53.609375 0 "/></g></g></g><g fill="#0d276b" fill-opacity="1"><g transform="translate(897.100976, 154.315483)"><g><path d="M 26.46875 0 L 2.375 0 L 2.375 -6.375 L 8.828125 -9.34375 L 8.828125 -43.609375 L 2.375 -46.5625 L 2.375 -52.953125 L 26.46875 -52.953125 L 26.46875 -46.5625 L 20.015625 -43.609375 L 20.015625 -9.34375 L 26.46875 -6.375 Z M 26.46875 0 "/></g></g></g><g fill="#0d276b" fill-opacity="1"><g transform="translate(925.20162, 154.315483)"><g><path d="M 53.609375 0 L 39.375 0 L 16.3125 -40.046875 L 16.015625 -40.046875 C 16.117188 -37.523438 16.226562 -35.003906 16.34375 -32.484375 C 16.46875 -29.960938 16.582031 -27.441406 16.6875 -24.921875 L 16.6875 0 L 6.671875 0 L 6.671875 -52.953125 L 20.84375 -52.953125 L 43.828125 -13.28125 L 44.046875 -13.28125 C 43.953125 -15.695312 43.851562 -18.113281 43.75 -20.53125 C 43.65625 -22.957031 43.582031 -25.40625 43.53125 -27.875 L 43.53125 -52.953125 L 53.609375 -52.953125 Z M 53.609375 0 "/></g></g></g><g fill="#0d276b" fill-opacity="1"><g transform="translate(984.739549, 154.315483)"><g><path d="M 26.765625 -29.734375 L 47.75 -29.734375 L 47.75 -2.296875 C 44.988281 -1.359375 42.097656 -0.617188 39.078125 -0.078125 C 36.066406 0.460938 32.679688 0.734375 28.921875 0.734375 C 21.015625 0.734375 14.929688 -1.585938 10.671875 -6.234375 C 6.421875 -10.878906 4.296875 -17.648438 4.296875 -26.546875 C 4.296875 -32.085938 5.359375 -36.882812 7.484375 -40.9375 C 9.609375 -44.988281 12.734375 -48.125 16.859375 -50.34375 C 20.992188 -52.570312 26.03125 -53.6875 31.96875 -53.6875 C 34.78125 -53.6875 37.546875 -53.390625 40.265625 -52.796875 C 42.984375 -52.203125 45.457031 -51.410156 47.6875 -50.421875 L 43.96875 -41.453125 C 42.34375 -42.296875 40.488281 -42.988281 38.40625 -43.53125 C 36.332031 -44.070312 34.160156 -44.34375 31.890625 -44.34375 C 28.628906 -44.34375 25.796875 -43.597656 23.390625 -42.109375 C 20.992188 -40.628906 19.140625 -38.53125 17.828125 -35.8125 C 16.523438 -33.09375 15.875 -29.929688 15.875 -26.328125 C 15.875 -22.867188 16.34375 -19.800781 17.28125 -17.125 C 18.21875 -14.457031 19.695312 -12.367188 21.71875 -10.859375 C 23.75 -9.359375 26.394531 -8.609375 29.65625 -8.609375 C 31.238281 -8.609375 32.570312 -8.679688 33.65625 -8.828125 C 34.75 -8.972656 35.789062 -9.144531 36.78125 -9.34375 L 36.78125 -20.390625 L 26.765625 -20.390625 Z M 26.765625 -29.734375 "/></g></g></g><g fill="#0d276b" fill-opacity="1"><g transform="translate(1037.678636, 154.315483)"><g/></g></g><g fill="#0d276b" fill-opacity="1"><g transform="translate(1071.185469, 154.315483)"><g><path d="M 23.578125 -52.953125 C 30.398438 -52.953125 35.378906 -51.476562 38.515625 -48.53125 C 41.660156 -45.59375 43.234375 -41.550781 43.234375 -36.40625 C 43.234375 -33.289062 42.585938 -30.398438 41.296875 -27.734375 C 40.015625 -25.066406 37.878906 -22.914062 34.890625 -21.28125 C 31.898438 -19.644531 27.832031 -18.828125 22.6875 -18.828125 L 17.875 -18.828125 L 17.875 0 L 6.671875 0 L 6.671875 -52.953125 Z M 22.984375 -43.75 L 17.875 -43.75 L 17.875 -28.03125 L 21.578125 -28.03125 C 24.742188 -28.03125 27.253906 -28.660156 29.109375 -29.921875 C 30.960938 -31.179688 31.890625 -33.222656 31.890625 -36.046875 C 31.890625 -41.179688 28.921875 -43.75 22.984375 -43.75 Z M 22.984375 -43.75 "/></g></g></g><g fill="#0d276b" fill-opacity="1"><g transform="translate(1117.006602, 154.315483)"><g><path d="M 48.203125 -52.953125 L 30.1875 0 L 17.953125 0 L 0 -52.953125 L 11.34375 -52.953125 L 21.28125 -21.4375 C 21.425781 -20.882812 21.695312 -19.878906 22.09375 -18.421875 C 22.488281 -16.960938 22.882812 -15.429688 23.28125 -13.828125 C 23.675781 -12.222656 23.945312 -10.875 24.09375 -9.78125 C 24.25 -10.875 24.507812 -12.222656 24.875 -13.828125 C 25.25 -15.429688 25.617188 -16.960938 25.984375 -18.421875 C 26.359375 -19.878906 26.644531 -20.882812 26.84375 -21.4375 L 36.859375 -52.953125 Z M 48.203125 -52.953125 "/></g></g></g><g fill="#0d276b" fill-opacity="1"><g transform="translate(1164.458929, 154.315483)"><g><path d="M 27.0625 0 L 15.875 0 L 15.875 -43.609375 L 1.484375 -43.609375 L 1.484375 -52.953125 L 41.453125 -52.953125 L 41.453125 -43.609375 L 27.0625 -43.609375 Z M 27.0625 0 "/></g></g></g><g fill="#0d276b" fill-opacity="1"><g transform="translate(1206.647068, 154.315483)"><g><path d="M 1.921875 -0.5 C 1.628906 -0.789062 1.484375 -1.140625 1.484375 -1.546875 C 1.484375 -1.960938 1.632812 -2.300781 1.9375 -2.5625 C 2.238281 -2.832031 2.582031 -2.96875 2.96875 -2.96875 C 3.351562 -2.96875 3.679688 -2.832031 3.953125 -2.5625 C 4.234375 -2.300781 4.375 -1.960938 4.375 -1.546875 C 4.375 -1.140625 4.226562 -0.789062 3.9375 -0.5 C 3.65625 -0.21875 3.332031 -0.078125 2.96875 -0.078125 C 2.5625 -0.078125 2.210938 -0.21875 1.921875 -0.5 Z M 1.921875 -0.5 "/></g></g></g><g fill="#0d276b" fill-opacity="1"><g transform="translate(1211.95145, 154.315483)"><g/></g></g><g fill="#0d276b" fill-opacity="1"><g transform="translate(1245.458283, 154.315483)"><g><path d="M 6.671875 0 L 6.671875 -52.953125 L 17.875 -52.953125 L 17.875 -9.265625 L 39.375 -9.265625 L 39.375 0 Z M 6.671875 0 "/></g></g></g><g fill="#0d276b" fill-opacity="1"><g transform="translate(1286.608395, 154.315483)"><g><path d="M 27.0625 0 L 15.875 0 L 15.875 -43.609375 L 1.484375 -43.609375 L 1.484375 -52.953125 L 41.453125 -52.953125 L 41.453125 -43.609375 L 27.0625 -43.609375 Z M 27.0625 0 "/></g></g></g><g fill="#0d276b" fill-opacity="1"><g transform="translate(1328.796532, 154.315483)"><g><path d="M 50.578125 -27 C 50.578125 -18.050781 48.03125 -11.3125 42.9375 -6.78125 C 37.84375 -2.257812 30.75 0 21.65625 0 L 6.671875 0 L 6.671875 -52.953125 L 23.28125 -52.953125 C 28.820312 -52.953125 33.628906 -51.960938 37.703125 -49.984375 C 41.785156 -48.003906 44.953125 -45.085938 47.203125 -41.234375 C 49.453125 -37.378906 50.578125 -32.632812 50.578125 -27 Z M 38.9375 -26.703125 C 38.9375 -32.535156 37.648438 -36.832031 35.078125 -39.59375 C 32.503906 -42.363281 28.769531 -43.75 23.875 -43.75 L 17.875 -43.75 L 17.875 -9.265625 L 22.6875 -9.265625 C 33.519531 -9.265625 38.9375 -15.078125 38.9375 -26.703125 Z M 38.9375 -26.703125 "/></g></g></g><g fill="#0d276b" fill-opacity="1"><g transform="translate(1382.921902, 154.315483)"><g><path d="M 1.921875 -0.5 C 1.628906 -0.789062 1.484375 -1.140625 1.484375 -1.546875 C 1.484375 -1.960938 1.632812 -2.300781 1.9375 -2.5625 C 2.238281 -2.832031 2.582031 -2.96875 2.96875 -2.96875 C 3.351562 -2.96875 3.679688 -2.832031 3.953125 -2.5625 C 4.234375 -2.300781 4.375 -1.960938 4.375 -1.546875 C 4.375 -1.140625 4.226562 -0.789062 3.9375 -0.5 C 3.65625 -0.21875 3.332031 -0.078125 2.96875 -0.078125 C 2.5625 -0.078125 2.210938 -0.21875 1.921875 -0.5 Z M 1.921875 -0.5 "/></g></g></g><g fill="#0d2f8b" fill-opacity="1"><g transform="translate(25.854834, 207.877719)"><g><path d="M 23.3125 0 L 19.84375 0 L 15.078125 -15.6875 L 10.25 0 L 6.75 0 L 0.09375 -20.109375 L 3.734375 -20.109375 L 8.609375 -3.765625 L 13.46875 -20.078125 L 16.796875 -20.109375 L 21.6875 -3.765625 L 26.53125 -20.109375 L 30.046875 -20.109375 Z M 23.3125 0 "/></g></g></g><g fill="#0d2f8b" fill-opacity="1"><g transform="translate(55.59933, 207.877719)"><g><path d="M 17 -17.0625 L 6.03125 -17.0625 L 6.03125 -11.625 L 15.859375 -11.625 L 15.859375 -8.59375 L 6.03125 -8.59375 L 6.03125 -3.046875 L 17.34375 -3.046875 L 17.34375 0 L 2.640625 0 L 2.640625 -20.109375 L 17 -20.109375 Z M 17 -17.0625 "/></g></g></g><g fill="#0d2f8b" fill-opacity="1"><g transform="translate(74.433684, 207.877719)"><g/></g></g><g fill="#0d2f8b" fill-opacity="1"><g transform="translate(81.8411, 207.877719)"><g><path d="M 15.625 -4.53125 L 5.484375 -4.53125 L 3.5625 0 L 0.03125 0 L 8.90625 -20.109375 L 12.375 -20.109375 L 21.171875 0 L 17.546875 0 Z M 14.328125 -7.546875 L 10.546875 -16.484375 L 6.75 -7.546875 Z M 14.328125 -7.546875 "/></g></g></g><g fill="#0d2f8b" fill-opacity="1"><g transform="translate(103.029743, 207.877719)"><g><path d="M 15.390625 0 L 11.71875 -6.09375 C 11.53125 -6.070312 11.222656 -6.0625 10.796875 -6.0625 L 6.03125 -6.0625 L 6.03125 0 L 2.640625 0 L 2.640625 -20.109375 L 10.796875 -20.109375 C 13.359375 -20.109375 15.347656 -19.507812 16.765625 -18.3125 C 18.179688 -17.113281 18.890625 -15.421875 18.890625 -13.234375 C 18.890625 -11.628906 18.53125 -10.269531 17.8125 -9.15625 C 17.101562 -8.050781 16.078125 -7.238281 14.734375 -6.71875 L 19.234375 0 Z M 6.03125 -9.109375 L 10.796875 -9.109375 C 14.054688 -9.109375 15.6875 -10.457031 15.6875 -13.15625 C 15.6875 -15.757812 14.054688 -17.0625 10.796875 -17.0625 L 6.03125 -17.0625 Z M 6.03125 -9.109375 "/></g></g></g><g fill="#0d2f8b" fill-opacity="1"><g transform="translate(123.787722, 207.877719)"><g><path d="M 17 -17.0625 L 6.03125 -17.0625 L 6.03125 -11.625 L 15.859375 -11.625 L 15.859375 -8.59375 L 6.03125 -8.59375 L 6.03125 -3.046875 L 17.34375 -3.046875 L 17.34375 0 L 2.640625 0 L 2.640625 -20.109375 L 17 -20.109375 Z M 17 -17.0625 "/></g></g></g><g fill="#0d2f8b" fill-opacity="1"><g transform="translate(142.622075, 207.877719)"><g/></g></g><g fill="#0d2f8b" fill-opacity="1"><g transform="translate(150.029492, 207.877719)"><g><path d="M 23.3125 0 L 19.84375 0 L 15.078125 -15.6875 L 10.25 0 L 6.75 0 L 0.09375 -20.109375 L 3.734375 -20.109375 L 8.609375 -3.765625 L 13.46875 -20.078125 L 16.796875 -20.109375 L 21.6875 -3.765625 L 26.53125 -20.109375 L 30.046875 -20.109375 Z M 23.3125 0 "/></g></g></g><g fill="#0d2f8b" fill-opacity="1"><g transform="translate(179.773989, 207.877719)"><g><path d="M 6.03125 0 L 2.640625 0 L 2.640625 -20.109375 L 6.03125 -20.109375 Z M 6.03125 0 "/></g></g></g><g fill="#0d2f8b" fill-opacity="1"><g transform="translate(188.444684, 207.877719)"><g><path d="M 16.375 -17.0625 L 10 -17.0625 L 10 0 L 6.609375 0 L 6.609375 -17.0625 L 0.265625 -17.0625 L 0.265625 -20.109375 L 16.375 -20.109375 Z M 16.375 -17.0625 "/></g></g></g><g fill="#0d2f8b" fill-opacity="1"><g transform="translate(205.06829, 207.877719)"><g><path d="M 20.078125 0 L 16.6875 0 L 16.6875 -8.328125 L 6.03125 -8.328125 L 6.03125 0 L 2.640625 0 L 2.640625 -20.109375 L 6.03125 -20.109375 L 6.03125 -11.375 L 16.6875 -11.375 L 16.6875 -20.109375 L 20.078125 -20.109375 Z M 20.078125 0 "/></g></g></g><g fill="#0d2f8b" fill-opacity="1"><g transform="translate(227.778608, 207.877719)"><g/></g></g><g fill="#0d2f8b" fill-opacity="1"><g transform="translate(235.186025, 207.877719)"><g><path d="M 10.890625 -6.6875 L 10.890625 0 L 7.53125 0 L 7.53125 -6.578125 L 0.03125 -20.109375 L 3.453125 -20.109375 L 9.1875 -10.3125 L 14.8125 -20.109375 L 18.265625 -20.109375 Z M 10.890625 -6.6875 "/></g></g></g><g fill="#0d2f8b" fill-opacity="1"><g transform="translate(253.474872, 207.877719)"><g><path d="M 4.046875 -17.265625 C 6.097656 -19.210938 8.625 -20.1875 11.625 -20.1875 C 14.632812 -20.1875 17.160156 -19.210938 19.203125 -17.265625 C 21.253906 -15.328125 22.28125 -12.921875 22.28125 -10.046875 C 22.28125 -7.179688 21.253906 -4.765625 19.203125 -2.796875 C 17.160156 -0.835938 14.632812 0.140625 11.625 0.140625 C 8.625 0.140625 6.097656 -0.835938 4.046875 -2.796875 C 1.992188 -4.765625 0.96875 -7.179688 0.96875 -10.046875 C 0.96875 -12.921875 1.992188 -15.328125 4.046875 -17.265625 Z M 11.65625 -17.140625 C 9.664062 -17.140625 7.960938 -16.453125 6.546875 -15.078125 C 5.128906 -13.710938 4.421875 -12.035156 4.421875 -10.046875 C 4.421875 -8.054688 5.132812 -6.367188 6.5625 -4.984375 C 7.988281 -3.597656 9.6875 -2.90625 11.65625 -2.90625 C 13.632812 -2.90625 15.320312 -3.597656 16.71875 -4.984375 C 18.113281 -6.367188 18.8125 -8.054688 18.8125 -10.046875 C 18.8125 -12.035156 18.113281 -13.710938 16.71875 -15.078125 C 15.320312 -16.453125 13.632812 -17.140625 11.65625 -17.140625 Z M 11.65625 -17.140625 "/></g></g></g><g fill="#0d2f8b" fill-opacity="1"><g transform="translate(276.730684, 207.877719)"><g><path d="M 19.734375 -20.109375 L 19.734375 -8.328125 C 19.734375 -5.703125 18.957031 -3.632812 17.40625 -2.125 C 15.851562 -0.613281 13.71875 0.140625 11 0.140625 C 8.28125 0.140625 6.140625 -0.613281 4.578125 -2.125 C 3.015625 -3.632812 2.234375 -5.703125 2.234375 -8.328125 L 2.234375 -20.109375 L 5.625 -20.109375 L 5.625 -8.328125 C 5.625 -6.640625 6.109375 -5.3125 7.078125 -4.34375 C 8.046875 -3.382812 9.363281 -2.90625 11.03125 -2.90625 C 12.675781 -2.90625 13.972656 -3.378906 14.921875 -4.328125 C 15.867188 -5.285156 16.34375 -6.617188 16.34375 -8.328125 L 16.34375 -20.109375 Z M 19.734375 -20.109375 "/></g></g></g><g fill="#0d2f8b" fill-opacity="1"><g transform="translate(298.665801, 207.877719)"><g><path d="M 3.125 -3.46875 C 3.601562 -3.46875 4.015625 -3.300781 4.359375 -2.96875 C 4.703125 -2.632812 4.875 -2.191406 4.875 -1.640625 C 4.875 -1.117188 4.703125 -0.609375 4.359375 -0.109375 L 2.734375 2.359375 L 1.03125 2.359375 L 2.125 -0.140625 C 1.601562 -0.484375 1.34375 -0.984375 1.34375 -1.640625 C 1.34375 -2.171875 1.507812 -2.609375 1.84375 -2.953125 C 2.1875 -3.296875 2.613281 -3.46875 3.125 -3.46875 Z M 3.125 -3.46875 "/></g></g></g><g fill="#0d2f8b" fill-opacity="1"><g transform="translate(304.809951, 207.877719)"><g/></g></g><g fill="#0d2f8b" fill-opacity="1"><g transform="translate(312.217367, 207.877719)"><g><path d="M 15.625 -4.53125 L 5.484375 -4.53125 L 3.5625 0 L 0.03125 0 L 8.90625 -20.109375 L 12.375 -20.109375 L 21.171875 0 L 17.546875 0 Z M 14.328125 -7.546875 L 10.546875 -16.484375 L 6.75 -7.546875 Z M 14.328125 -7.546875 "/></g></g></g><g fill="#0d2f8b" fill-opacity="1"><g transform="translate(333.40601, 207.877719)"><g><path d="M 11.546875 -20.1875 C 12.960938 -20.1875 14.34375 -19.910156 15.6875 -19.359375 C 17.039062 -18.816406 18.207031 -18.0625 19.1875 -17.09375 L 17.203125 -14.625 C 16.472656 -15.40625 15.609375 -16.023438 14.609375 -16.484375 C 13.617188 -16.941406 12.617188 -17.171875 11.609375 -17.171875 C 9.597656 -17.171875 7.894531 -16.484375 6.5 -15.109375 C 5.113281 -13.742188 4.421875 -12.078125 4.421875 -10.109375 C 4.421875 -8.117188 5.113281 -6.4375 6.5 -5.0625 C 7.894531 -3.695312 9.597656 -3.015625 11.609375 -3.015625 C 13.691406 -3.015625 15.554688 -3.8125 17.203125 -5.40625 L 19.21875 -3.15625 C 18.175781 -2.144531 16.96875 -1.34375 15.59375 -0.75 C 14.21875 -0.15625 12.832031 0.140625 11.4375 0.140625 C 8.476562 0.140625 5.992188 -0.835938 3.984375 -2.796875 C 1.972656 -4.765625 0.96875 -7.191406 0.96875 -10.078125 C 0.96875 -12.929688 1.988281 -15.328125 4.03125 -17.265625 C 6.070312 -19.210938 8.578125 -20.1875 11.546875 -20.1875 Z M 11.546875 -20.1875 "/></g></g></g><g fill="#0d2f8b" fill-opacity="1"><g transform="translate(353.417491, 207.877719)"><g><path d="M 15.390625 0 L 11.71875 -6.09375 C 11.53125 -6.070312 11.222656 -6.0625 10.796875 -6.0625 L 6.03125 -6.0625 L 6.03125 0 L 2.640625 0 L 2.640625 -20.109375 L 10.796875 -20.109375 C 13.359375 -20.109375 15.347656 -19.507812 16.765625 -18.3125 C 18.179688 -17.113281 18.890625 -15.421875 18.890625 -13.234375 C 18.890625 -11.628906 18.53125 -10.269531 17.8125 -9.15625 C 17.101562 -8.050781 16.078125 -7.238281 14.734375 -6.71875 L 19.234375 0 Z M 6.03125 -9.109375 L 10.796875 -9.109375 C 14.054688 -9.109375 15.6875 -10.457031 15.6875 -13.15625 C 15.6875 -15.757812 14.054688 -17.0625 10.796875 -17.0625 L 6.03125 -17.0625 Z M 6.03125 -9.109375 "/></g></g></g><g fill="#0d2f8b" fill-opacity="1"><g transform="translate(374.175469, 207.877719)"><g><path d="M 4.046875 -17.265625 C 6.097656 -19.210938 8.625 -20.1875 11.625 -20.1875 C 14.632812 -20.1875 17.160156 -19.210938 19.203125 -17.265625 C 21.253906 -15.328125 22.28125 -12.921875 22.28125 -10.046875 C 22.28125 -7.179688 21.253906 -4.765625 19.203125 -2.796875 C 17.160156 -0.835938 14.632812 0.140625 11.625 0.140625 C 8.625 0.140625 6.097656 -0.835938 4.046875 -2.796875 C 1.992188 -4.765625 0.96875 -7.179688 0.96875 -10.046875 C 0.96875 -12.921875 1.992188 -15.328125 4.046875 -17.265625 Z M 11.65625 -17.140625 C 9.664062 -17.140625 7.960938 -16.453125 6.546875 -15.078125 C 5.128906 -13.710938 4.421875 -12.035156 4.421875 -10.046875 C 4.421875 -8.054688 5.132812 -6.367188 6.5625 -4.984375 C 7.988281 -3.597656 9.6875 -2.90625 11.65625 -2.90625 C 13.632812 -2.90625 15.320312 -3.597656 16.71875 -4.984375 C 18.113281 -6.367188 18.8125 -8.054688 18.8125 -10.046875 C 18.8125 -12.035156 18.113281 -13.710938 16.71875 -15.078125 C 15.320312 -16.453125 13.632812 -17.140625 11.65625 -17.140625 Z M 11.65625 -17.140625 "/></g></g></g><g fill="#0d2f8b" fill-opacity="1"><g transform="translate(397.431281, 207.877719)"><g><path d="M 9.25 -20.25 C 11.851562 -20.25 14.195312 -19.554688 16.28125 -18.171875 L 14.875 -15.1875 C 12.820312 -16.4375 10.859375 -17.0625 8.984375 -17.0625 C 7.972656 -17.0625 7.175781 -16.878906 6.59375 -16.515625 C 6.007812 -16.148438 5.71875 -15.628906 5.71875 -14.953125 C 5.71875 -14.285156 5.984375 -13.71875 6.515625 -13.25 C 7.054688 -12.78125 7.726562 -12.4375 8.53125 -12.21875 C 9.332031 -12 10.203125 -11.722656 11.140625 -11.390625 C 12.078125 -11.054688 12.945312 -10.703125 13.75 -10.328125 C 14.5625 -9.953125 15.226562 -9.363281 15.75 -8.5625 C 16.28125 -7.769531 16.546875 -6.8125 16.546875 -5.6875 C 16.546875 -3.925781 15.84375 -2.519531 14.4375 -1.46875 C 13.03125 -0.414062 11.203125 0.109375 8.953125 0.109375 C 7.421875 0.109375 5.9375 -0.175781 4.5 -0.75 C 3.070312 -1.320312 1.820312 -2.097656 0.75 -3.078125 L 2.21875 -6 C 3.226562 -5.0625 4.335938 -4.335938 5.546875 -3.828125 C 6.765625 -3.328125 7.921875 -3.078125 9.015625 -3.078125 C 10.203125 -3.078125 11.125 -3.289062 11.78125 -3.71875 C 12.445312 -4.144531 12.78125 -4.742188 12.78125 -5.515625 C 12.78125 -6.203125 12.507812 -6.78125 11.96875 -7.25 C 11.4375 -7.71875 10.769531 -8.0625 9.96875 -8.28125 C 9.164062 -8.5 8.289062 -8.765625 7.34375 -9.078125 C 6.40625 -9.398438 5.535156 -9.738281 4.734375 -10.09375 C 3.929688 -10.445312 3.257812 -11.015625 2.71875 -11.796875 C 2.1875 -12.585938 1.921875 -13.535156 1.921875 -14.640625 C 1.921875 -16.347656 2.585938 -17.707031 3.921875 -18.71875 C 5.265625 -19.738281 7.039062 -20.25 9.25 -20.25 Z M 9.25 -20.25 "/></g></g></g><g fill="#0d2f8b" fill-opacity="1"><g transform="translate(415.289464, 207.877719)"><g><path d="M 9.25 -20.25 C 11.851562 -20.25 14.195312 -19.554688 16.28125 -18.171875 L 14.875 -15.1875 C 12.820312 -16.4375 10.859375 -17.0625 8.984375 -17.0625 C 7.972656 -17.0625 7.175781 -16.878906 6.59375 -16.515625 C 6.007812 -16.148438 5.71875 -15.628906 5.71875 -14.953125 C 5.71875 -14.285156 5.984375 -13.71875 6.515625 -13.25 C 7.054688 -12.78125 7.726562 -12.4375 8.53125 -12.21875 C 9.332031 -12 10.203125 -11.722656 11.140625 -11.390625 C 12.078125 -11.054688 12.945312 -10.703125 13.75 -10.328125 C 14.5625 -9.953125 15.226562 -9.363281 15.75 -8.5625 C 16.28125 -7.769531 16.546875 -6.8125 16.546875 -5.6875 C 16.546875 -3.925781 15.84375 -2.519531 14.4375 -1.46875 C 13.03125 -0.414062 11.203125 0.109375 8.953125 0.109375 C 7.421875 0.109375 5.9375 -0.175781 4.5 -0.75 C 3.070312 -1.320312 1.820312 -2.097656 0.75 -3.078125 L 2.21875 -6 C 3.226562 -5.0625 4.335938 -4.335938 5.546875 -3.828125 C 6.765625 -3.328125 7.921875 -3.078125 9.015625 -3.078125 C 10.203125 -3.078125 11.125 -3.289062 11.78125 -3.71875 C 12.445312 -4.144531 12.78125 -4.742188 12.78125 -5.515625 C 12.78125 -6.203125 12.507812 -6.78125 11.96875 -7.25 C 11.4375 -7.71875 10.769531 -8.0625 9.96875 -8.28125 C 9.164062 -8.5 8.289062 -8.765625 7.34375 -9.078125 C 6.40625 -9.398438 5.535156 -9.738281 4.734375 -10.09375 C 3.929688 -10.445312 3.257812 -11.015625 2.71875 -11.796875 C 2.1875 -12.585938 1.921875 -13.535156 1.921875 -14.640625 C 1.921875 -16.347656 2.585938 -17.707031 3.921875 -18.71875 C 5.265625 -19.738281 7.039062 -20.25 9.25 -20.25 Z M 9.25 -20.25 "/></g></g></g><g fill="#0d2f8b" fill-opacity="1"><g transform="translate(433.147647, 207.877719)"><g/></g></g><g fill="#0d2f8b" fill-opacity="1"><g transform="translate(440.555087, 207.877719)"><g><path d="M 9.25 -20.25 C 11.851562 -20.25 14.195312 -19.554688 16.28125 -18.171875 L 14.875 -15.1875 C 12.820312 -16.4375 10.859375 -17.0625 8.984375 -17.0625 C 7.972656 -17.0625 7.175781 -16.878906 6.59375 -16.515625 C 6.007812 -16.148438 5.71875 -15.628906 5.71875 -14.953125 C 5.71875 -14.285156 5.984375 -13.71875 6.515625 -13.25 C 7.054688 -12.78125 7.726562 -12.4375 8.53125 -12.21875 C 9.332031 -12 10.203125 -11.722656 11.140625 -11.390625 C 12.078125 -11.054688 12.945312 -10.703125 13.75 -10.328125 C 14.5625 -9.953125 15.226562 -9.363281 15.75 -8.5625 C 16.28125 -7.769531 16.546875 -6.8125 16.546875 -5.6875 C 16.546875 -3.925781 15.84375 -2.519531 14.4375 -1.46875 C 13.03125 -0.414062 11.203125 0.109375 8.953125 0.109375 C 7.421875 0.109375 5.9375 -0.175781 4.5 -0.75 C 3.070312 -1.320312 1.820312 -2.097656 0.75 -3.078125 L 2.21875 -6 C 3.226562 -5.0625 4.335938 -4.335938 5.546875 -3.828125 C 6.765625 -3.328125 7.921875 -3.078125 9.015625 -3.078125 C 10.203125 -3.078125 11.125 -3.289062 11.78125 -3.71875 C 12.445312 -4.144531 12.78125 -4.742188 12.78125 -5.515625 C 12.78125 -6.203125 12.507812 -6.78125 11.96875 -7.25 C 11.4375 -7.71875 10.769531 -8.0625 9.96875 -8.28125 C 9.164062 -8.5 8.289062 -8.765625 7.34375 -9.078125 C 6.40625 -9.398438 5.535156 -9.738281 4.734375 -10.09375 C 3.929688 -10.445312 3.257812 -11.015625 2.71875 -11.796875 C 2.1875 -12.585938 1.921875 -13.535156 1.921875 -14.640625 C 1.921875 -16.347656 2.585938 -17.707031 3.921875 -18.71875 C 5.265625 -19.738281 7.039062 -20.25 9.25 -20.25 Z M 9.25 -20.25 "/></g></g></g><g fill="#0d2f8b" fill-opacity="1"><g transform="translate(458.41327, 207.877719)"><g><path d="M 17 -17.0625 L 6.03125 -17.0625 L 6.03125 -11.625 L 15.859375 -11.625 L 15.859375 -8.59375 L 6.03125 -8.59375 L 6.03125 -3.046875 L 17.34375 -3.046875 L 17.34375 0 L 2.640625 0 L 2.640625 -20.109375 L 17 -20.109375 Z M 17 -17.0625 "/></g></g></g><g fill="#0d2f8b" fill-opacity="1"><g transform="translate(477.247635, 207.877719)"><g><path d="M 15.625 -4.53125 L 5.484375 -4.53125 L 3.5625 0 L 0.03125 0 L 8.90625 -20.109375 L 12.375 -20.109375 L 21.171875 0 L 17.546875 0 Z M 14.328125 -7.546875 L 10.546875 -16.484375 L 6.75 -7.546875 Z M 14.328125 -7.546875 "/></g></g></g><g fill="#0d2f8b" fill-opacity="1"><g transform="translate(498.436278, 207.877719)"><g><path d="M 9.25 -20.25 C 11.851562 -20.25 14.195312 -19.554688 16.28125 -18.171875 L 14.875 -15.1875 C 12.820312 -16.4375 10.859375 -17.0625 8.984375 -17.0625 C 7.972656 -17.0625 7.175781 -16.878906 6.59375 -16.515625 C 6.007812 -16.148438 5.71875 -15.628906 5.71875 -14.953125 C 5.71875 -14.285156 5.984375 -13.71875 6.515625 -13.25 C 7.054688 -12.78125 7.726562 -12.4375 8.53125 -12.21875 C 9.332031 -12 10.203125 -11.722656 11.140625 -11.390625 C 12.078125 -11.054688 12.945312 -10.703125 13.75 -10.328125 C 14.5625 -9.953125 15.226562 -9.363281 15.75 -8.5625 C 16.28125 -7.769531 16.546875 -6.8125 16.546875 -5.6875 C 16.546875 -3.925781 15.84375 -2.519531 14.4375 -1.46875 C 13.03125 -0.414062 11.203125 0.109375 8.953125 0.109375 C 7.421875 0.109375 5.9375 -0.175781 4.5 -0.75 C 3.070312 -1.320312 1.820312 -2.097656 0.75 -3.078125 L 2.21875 -6 C 3.226562 -5.0625 4.335938 -4.335938 5.546875 -3.828125 C 6.765625 -3.328125 7.921875 -3.078125 9.015625 -3.078125 C 10.203125 -3.078125 11.125 -3.289062 11.78125 -3.71875 C 12.445312 -4.144531 12.78125 -4.742188 12.78125 -5.515625 C 12.78125 -6.203125 12.507812 -6.78125 11.96875 -7.25 C 11.4375 -7.71875 10.769531 -8.0625 9.96875 -8.28125 C 9.164062 -8.5 8.289062 -8.765625 7.34375 -9.078125 C 6.40625 -9.398438 5.535156 -9.738281 4.734375 -10.09375 C 3.929688 -10.445312 3.257812 -11.015625 2.71875 -11.796875 C 2.1875 -12.585938 1.921875 -13.535156 1.921875 -14.640625 C 1.921875 -16.347656 2.585938 -17.707031 3.921875 -18.71875 C 5.265625 -19.738281 7.039062 -20.25 9.25 -20.25 Z M 9.25 -20.25 "/></g></g></g><g fill="#0d2f8b" fill-opacity="1"><g transform="translate(516.294461, 207.877719)"><g><path d="M 4.046875 -17.265625 C 6.097656 -19.210938 8.625 -20.1875 11.625 -20.1875 C 14.632812 -20.1875 17.160156 -19.210938 19.203125 -17.265625 C 21.253906 -15.328125 22.28125 -12.921875 22.28125 -10.046875 C 22.28125 -7.179688 21.253906 -4.765625 19.203125 -2.796875 C 17.160156 -0.835938 14.632812 0.140625 11.625 0.140625 C 8.625 0.140625 6.097656 -0.835938 4.046875 -2.796875 C 1.992188 -4.765625 0.96875 -7.179688 0.96875 -10.046875 C 0.96875 -12.921875 1.992188 -15.328125 4.046875 -17.265625 Z M 11.65625 -17.140625 C 9.664062 -17.140625 7.960938 -16.453125 6.546875 -15.078125 C 5.128906 -13.710938 4.421875 -12.035156 4.421875 -10.046875 C 4.421875 -8.054688 5.132812 -6.367188 6.5625 -4.984375 C 7.988281 -3.597656 9.6875 -2.90625 11.65625 -2.90625 C 13.632812 -2.90625 15.320312 -3.597656 16.71875 -4.984375 C 18.113281 -6.367188 18.8125 -8.054688 18.8125 -10.046875 C 18.8125 -12.035156 18.113281 -13.710938 16.71875 -15.078125 C 15.320312 -16.453125 13.632812 -17.140625 11.65625 -17.140625 Z M 11.65625 -17.140625 "/></g></g></g><g fill="#0d2f8b" fill-opacity="1"><g transform="translate(539.550272, 207.877719)"><g><path d="M 20.078125 0 L 16.75 0 L 6.03125 -14.421875 L 6.03125 0 L 2.640625 0 L 2.640625 -20.109375 L 5.96875 -20.109375 L 16.75 -5.65625 L 16.75 -20.109375 L 20.078125 -20.109375 Z M 20.078125 0 "/></g></g></g><g fill="#0d2f8b" fill-opacity="1"><g transform="translate(562.289315, 207.877719)"><g><path d="M 9.25 -20.25 C 11.851562 -20.25 14.195312 -19.554688 16.28125 -18.171875 L 14.875 -15.1875 C 12.820312 -16.4375 10.859375 -17.0625 8.984375 -17.0625 C 7.972656 -17.0625 7.175781 -16.878906 6.59375 -16.515625 C 6.007812 -16.148438 5.71875 -15.628906 5.71875 -14.953125 C 5.71875 -14.285156 5.984375 -13.71875 6.515625 -13.25 C 7.054688 -12.78125 7.726562 -12.4375 8.53125 -12.21875 C 9.332031 -12 10.203125 -11.722656 11.140625 -11.390625 C 12.078125 -11.054688 12.945312 -10.703125 13.75 -10.328125 C 14.5625 -9.953125 15.226562 -9.363281 15.75 -8.5625 C 16.28125 -7.769531 16.546875 -6.8125 16.546875 -5.6875 C 16.546875 -3.925781 15.84375 -2.519531 14.4375 -1.46875 C 13.03125 -0.414062 11.203125 0.109375 8.953125 0.109375 C 7.421875 0.109375 5.9375 -0.175781 4.5 -0.75 C 3.070312 -1.320312 1.820312 -2.097656 0.75 -3.078125 L 2.21875 -6 C 3.226562 -5.0625 4.335938 -4.335938 5.546875 -3.828125 C 6.765625 -3.328125 7.921875 -3.078125 9.015625 -3.078125 C 10.203125 -3.078125 11.125 -3.289062 11.78125 -3.71875 C 12.445312 -4.144531 12.78125 -4.742188 12.78125 -5.515625 C 12.78125 -6.203125 12.507812 -6.78125 11.96875 -7.25 C 11.4375 -7.71875 10.769531 -8.0625 9.96875 -8.28125 C 9.164062 -8.5 8.289062 -8.765625 7.34375 -9.078125 C 6.40625 -9.398438 5.535156 -9.738281 4.734375 -10.09375 C 3.929688 -10.445312 3.257812 -11.015625 2.71875 -11.796875 C 2.1875 -12.585938 1.921875 -13.535156 1.921875 -14.640625 C 1.921875 -16.347656 2.585938 -17.707031 3.921875 -18.71875 C 5.265625 -19.738281 7.039062 -20.25 9.25 -20.25 Z M 9.25 -20.25 "/></g></g></g><g fill="#0d2f8b" fill-opacity="1"><g transform="translate(580.147498, 207.877719)"><g><path d="M 5 -14.90625 L 4.484375 -6.40625 L 2.390625 -6.40625 L 1.859375 -14.90625 L 1.859375 -19.84375 L 5 -19.84375 Z M 2.15625 -3 C 2.5 -3.351562 2.925781 -3.53125 3.4375 -3.53125 C 3.957031 -3.53125 4.390625 -3.351562 4.734375 -3 C 5.078125 -2.644531 5.25 -2.203125 5.25 -1.671875 C 5.25 -1.109375 5.078125 -0.644531 4.734375 -0.28125 C 4.390625 0.0820312 3.957031 0.265625 3.4375 0.265625 C 2.925781 0.265625 2.5 0.0820312 2.15625 -0.28125 C 1.8125 -0.644531 1.640625 -1.109375 1.640625 -1.671875 C 1.640625 -2.203125 1.8125 -2.644531 2.15625 -3 Z M 2.15625 -3 "/></g></g></g></svg>