<svg xmlns="http://www.w3.org/2000/svg" xmlns:xlink="http://www.w3.org/1999/xlink" width="1920" zoomAndPan="magnify" viewBox="0 0 1440 359.999987" height="480" preserveAspectRatio="xMidYMid meet" version="1.0"><defs><g/></defs><g fill="#0a57a2" fill-opacity="1"><g transform="translate(24.354834, 164.631109)"><g><path d="M 25.765625 -53.8125 C 33.722656 -53.8125 40.710938 -51.832031 46.734375 -47.875 L 41.640625 -37.3125 C 38.859375 -38.9375 35.867188 -40.265625 32.671875 -41.296875 C 29.484375 -42.335938 26.800781 -42.859375 24.625 -42.859375 C 20.71875 -42.859375 18.765625 -41.566406 18.765625 -38.984375 C 18.765625 -37.316406 19.726562 -35.972656 21.65625 -34.953125 C 23.582031 -33.941406 25.925781 -33.066406 28.6875 -32.328125 C 31.445312 -31.597656 34.207031 -30.710938 36.96875 -29.671875 C 39.726562 -28.640625 42.070312 -26.957031 44 -24.625 C 45.925781 -22.289062 46.890625 -19.351562 46.890625 -15.8125 C 46.890625 -10.6875 44.890625 -6.691406 40.890625 -3.828125 C 36.890625 -0.972656 31.796875 0.453125 25.609375 0.453125 C 21.203125 0.453125 16.84375 -0.304688 12.53125 -1.828125 C 8.226562 -3.347656 4.484375 -5.425781 1.296875 -8.0625 L 6.53125 -18.46875 C 9.21875 -16.132812 12.382812 -14.21875 16.03125 -12.71875 C 19.6875 -11.226562 22.929688 -10.484375 25.765625 -10.484375 C 27.941406 -10.484375 29.640625 -10.875 30.859375 -11.65625 C 32.078125 -12.445312 32.6875 -13.601562 32.6875 -15.125 C 32.6875 -16.59375 31.988281 -17.820312 30.59375 -18.8125 C 29.195312 -19.800781 27.457031 -20.535156 25.375 -21.015625 C 23.300781 -21.492188 21.046875 -22.140625 18.609375 -22.953125 C 16.179688 -23.765625 13.925781 -24.648438 11.84375 -25.609375 C 9.769531 -26.578125 8.035156 -28.109375 6.640625 -30.203125 C 5.253906 -32.304688 4.5625 -34.828125 4.5625 -37.765625 C 4.5625 -42.628906 6.5 -46.519531 10.375 -49.4375 C 14.25 -52.351562 19.378906 -53.8125 25.765625 -53.8125 Z M 25.765625 -53.8125 "/></g></g></g><g fill="#0a57a2" fill-opacity="1"><g transform="translate(72.156327, 164.631109)"><g><path d="M 32.75 -17.171875 L 32.75 0 L 19.296875 0 L 19.296875 -16.796875 L -0.375 -53.203125 L 13.140625 -53.203125 L 25.984375 -30.015625 L 38.53125 -53.203125 L 52.0625 -53.203125 Z M 32.75 -17.171875 "/></g></g></g><g fill="#0a57a2" fill-opacity="1"><g transform="translate(122.693679, 164.631109)"><g><path d="M 25.765625 -53.8125 C 33.722656 -53.8125 40.710938 -51.832031 46.734375 -47.875 L 41.640625 -37.3125 C 38.859375 -38.9375 35.867188 -40.265625 32.671875 -41.296875 C 29.484375 -42.335938 26.800781 -42.859375 24.625 -42.859375 C 20.71875 -42.859375 18.765625 -41.566406 18.765625 -38.984375 C 18.765625 -37.316406 19.726562 -35.972656 21.65625 -34.953125 C 23.582031 -33.941406 25.925781 -33.066406 28.6875 -32.328125 C 31.445312 -31.597656 34.207031 -30.710938 36.96875 -29.671875 C 39.726562 -28.640625 42.070312 -26.957031 44 -24.625 C 45.925781 -22.289062 46.890625 -19.351562 46.890625 -15.8125 C 46.890625 -10.6875 44.890625 -6.691406 40.890625 -3.828125 C 36.890625 -0.972656 31.796875 0.453125 25.609375 0.453125 C 21.203125 0.453125 16.84375 -0.304688 12.53125 -1.828125 C 8.226562 -3.347656 4.484375 -5.425781 1.296875 -8.0625 L 6.53125 -18.46875 C 9.21875 -16.132812 12.382812 -14.21875 16.03125 -12.71875 C 19.6875 -11.226562 22.929688 -10.484375 25.765625 -10.484375 C 27.941406 -10.484375 29.640625 -10.875 30.859375 -11.65625 C 32.078125 -12.445312 32.6875 -13.601562 32.6875 -15.125 C 32.6875 -16.59375 31.988281 -17.820312 30.59375 -18.8125 C 29.195312 -19.800781 27.457031 -20.535156 25.375 -21.015625 C 23.300781 -21.492188 21.046875 -22.140625 18.609375 -22.953125 C 16.179688 -23.765625 13.925781 -24.648438 11.84375 -25.609375 C 9.769531 -26.578125 8.035156 -28.109375 6.640625 -30.203125 C 5.253906 -32.304688 4.5625 -34.828125 4.5625 -37.765625 C 4.5625 -42.628906 6.5 -46.519531 10.375 -49.4375 C 14.25 -52.351562 19.378906 -53.8125 25.765625 -53.8125 Z M 25.765625 -53.8125 "/></g></g></g><g fill="#0a57a2" fill-opacity="1"><g transform="translate(170.495166, 164.631109)"><g><path d="M 45.984375 -42.328125 L 29.9375 -42.328125 L 29.9375 0 L 16.421875 0 L 16.421875 -42.328125 L 0.53125 -42.328125 L 0.53125 -53.28125 L 45.984375 -53.28125 Z M 45.984375 -42.328125 "/></g></g></g><g fill="#0a57a2" fill-opacity="1"><g transform="translate(215.788771, 164.631109)"><g><path d="M 46.96875 -42.5625 L 18.84375 -42.5625 L 18.84375 -32 L 44.234375 -32 L 44.234375 -21.359375 L 18.84375 -21.359375 L 18.84375 -10.640625 L 47.796875 -10.640625 L 47.796875 0 L 5.3125 0 L 5.3125 -53.203125 L 46.96875 -53.203125 Z M 46.96875 -42.5625 "/></g></g></g><g fill="#0a57a2" fill-opacity="1"><g transform="translate(265.87015, 164.631109)"><g><path d="M 63.765625 0 L 51.828125 0 L 51.75 -34.578125 L 38.984375 -5.3125 L 30.171875 -5.3125 L 17.40625 -34.578125 L 17.40625 0 L 5.3125 0 L 5.3125 -53.28125 L 20.140625 -53.28125 L 34.578125 -21.578125 L 49.015625 -53.28125 L 63.765625 -53.28125 Z M 63.765625 0 "/></g></g></g><g fill="#0a57a2" fill-opacity="1"><g transform="translate(333.886594, 164.631109)"><g/></g></g><g fill="#0a57a2" fill-opacity="1"><g transform="translate(350.377689, 164.631109)"><g><path d="M 40.65625 -9.796875 L 17.40625 -9.796875 L 13.53125 0 L -0.375 0 L 22.578125 -53.203125 L 36.484375 -53.203125 L 58.90625 0 L 44.453125 0 Z M 36.703125 -20.0625 L 29.109375 -39.75 L 21.359375 -20.0625 Z M 36.703125 -20.0625 "/></g></g></g><g fill="#0a57a2" fill-opacity="1"><g transform="translate(407.754676, 164.631109)"><g><path d="M 18.84375 0 L 5.3125 0 L 5.3125 -53.203125 L 18.84375 -53.203125 Z M 18.84375 0 "/></g></g></g><g fill="#0a57a2" fill-opacity="1"><g transform="translate(430.781423, 164.631109)"><g><path d="M 37.390625 0 L 29.484375 -14.96875 L 18.84375 -14.96875 L 18.84375 0 L 5.3125 0 L 5.3125 -53.203125 L 29.109375 -53.203125 C 36.148438 -53.203125 41.59375 -51.59375 45.4375 -48.375 C 49.289062 -45.15625 51.21875 -40.582031 51.21875 -34.65625 C 51.21875 -26.445312 48.003906 -20.75 41.578125 -17.5625 L 52.75 0 Z M 18.84375 -25.609375 L 29.109375 -25.609375 C 32.046875 -25.609375 34.320312 -26.34375 35.9375 -27.8125 C 37.5625 -29.28125 38.375 -31.410156 38.375 -34.203125 C 38.375 -36.929688 37.5625 -39.003906 35.9375 -40.421875 C 34.320312 -41.847656 32.046875 -42.5625 29.109375 -42.5625 L 18.84375 -42.5625 Z M 18.84375 -25.609375 "/></g></g></g><g fill="#0a57a2" fill-opacity="1"><g transform="translate(484.662584, 164.631109)"><g><path d="M 30.25 -53.65625 C 34.195312 -53.65625 38.082031 -52.84375 41.90625 -51.21875 C 45.738281 -49.601562 49 -47.425781 51.6875 -44.6875 L 43.859375 -35.421875 C 42.128906 -37.546875 40.0625 -39.226562 37.65625 -40.46875 C 35.25 -41.707031 32.851562 -42.328125 30.46875 -42.328125 C 26.269531 -42.328125 22.75 -40.84375 19.90625 -37.875 C 17.070312 -34.914062 15.65625 -31.257812 15.65625 -26.90625 C 15.65625 -22.445312 17.070312 -18.722656 19.90625 -15.734375 C 22.75 -12.742188 26.269531 -11.25 30.46875 -11.25 C 32.695312 -11.25 35.015625 -11.804688 37.421875 -12.921875 C 39.835938 -14.035156 41.984375 -15.554688 43.859375 -17.484375 L 51.75 -9.125 C 48.863281 -6.1875 45.457031 -3.828125 41.53125 -2.046875 C 37.601562 -0.273438 33.691406 0.609375 29.796875 0.609375 C 21.785156 0.609375 15.117188 -2 9.796875 -7.21875 C 4.484375 -12.4375 1.828125 -18.945312 1.828125 -26.75 C 1.828125 -34.40625 4.535156 -40.800781 9.953125 -45.9375 C 15.378906 -51.082031 22.144531 -53.65625 30.25 -53.65625 Z M 30.25 -53.65625 "/></g></g></g><g fill="#0a57a2" fill-opacity="1"><g transform="translate(536.111875, 164.631109)"><g><path d="M 30.546875 -53.65625 C 38.804688 -53.65625 45.671875 -51.082031 51.140625 -45.9375 C 56.617188 -40.800781 59.359375 -34.378906 59.359375 -26.671875 C 59.359375 -18.921875 56.609375 -12.4375 51.109375 -7.21875 C 45.609375 -2 38.753906 0.609375 30.546875 0.609375 C 22.335938 0.609375 15.5 -1.984375 10.03125 -7.171875 C 4.5625 -12.367188 1.828125 -18.867188 1.828125 -26.671875 C 1.828125 -34.421875 4.5625 -40.851562 10.03125 -45.96875 C 15.5 -51.09375 22.335938 -53.65625 30.546875 -53.65625 Z M 30.703125 -42.328125 C 26.546875 -42.328125 23 -40.816406 20.0625 -37.796875 C 17.125 -34.785156 15.65625 -31.050781 15.65625 -26.59375 C 15.65625 -22.132812 17.132812 -18.375 20.09375 -15.3125 C 23.0625 -12.25 26.597656 -10.71875 30.703125 -10.71875 C 34.804688 -10.71875 38.289062 -12.25 41.15625 -15.3125 C 44.019531 -18.375 45.453125 -22.132812 45.453125 -26.59375 C 45.453125 -31.050781 44.019531 -34.785156 41.15625 -37.796875 C 38.289062 -40.816406 34.804688 -42.328125 30.703125 -42.328125 Z M 30.703125 -42.328125 "/></g></g></g><g fill="#0a57a2" fill-opacity="1"><g transform="translate(596.14872, 164.631109)"><g><path d="M 54.421875 0 L 42.484375 0 L 18.015625 -32.75 L 18.015625 0 L 5.3125 0 L 5.3125 -53.203125 L 17.25 -53.203125 L 41.796875 -20.375 L 41.796875 -53.203125 L 54.421875 -53.203125 Z M 54.421875 0 "/></g></g></g><g fill="#0a57a2" fill-opacity="1"><g transform="translate(654.741641, 164.631109)"><g><path d="M 5.3125 -53.203125 L 28.203125 -53.203125 C 36.554688 -53.203125 43.351562 -50.742188 48.59375 -45.828125 C 53.84375 -40.910156 56.46875 -34.5 56.46875 -26.59375 C 56.46875 -18.738281 53.804688 -12.34375 48.484375 -7.40625 C 43.171875 -2.46875 36.226562 0 27.65625 0 L 5.3125 0 Z M 18.84375 -42.40625 L 18.84375 -10.796875 L 28.5 -10.796875 C 32.65625 -10.796875 36.0625 -12.25 38.71875 -15.15625 C 41.382812 -18.070312 42.71875 -21.859375 42.71875 -26.515625 C 42.71875 -31.179688 41.320312 -34.992188 38.53125 -37.953125 C 35.75 -40.921875 32.203125 -42.40625 27.890625 -42.40625 Z M 18.84375 -42.40625 "/></g></g></g><g fill="#0a57a2" fill-opacity="1"><g transform="translate(711.890638, 164.631109)"><g><path d="M 18.84375 0 L 5.3125 0 L 5.3125 -53.203125 L 18.84375 -53.203125 Z M 18.84375 0 "/></g></g></g><g fill="#0a57a2" fill-opacity="1"><g transform="translate(734.917385, 164.631109)"><g><path d="M 45.984375 -42.328125 L 29.9375 -42.328125 L 29.9375 0 L 16.421875 0 L 16.421875 -42.328125 L 0.53125 -42.328125 L 0.53125 -53.28125 L 45.984375 -53.28125 Z M 45.984375 -42.328125 "/></g></g></g><g fill="#0a57a2" fill-opacity="1"><g transform="translate(780.210991, 164.631109)"><g><path d="M 18.84375 0 L 5.3125 0 L 5.3125 -53.203125 L 18.84375 -53.203125 Z M 18.84375 0 "/></g></g></g><g fill="#0a57a2" fill-opacity="1"><g transform="translate(803.237738, 164.631109)"><g><path d="M 30.546875 -53.65625 C 38.804688 -53.65625 45.671875 -51.082031 51.140625 -45.9375 C 56.617188 -40.800781 59.359375 -34.378906 59.359375 -26.671875 C 59.359375 -18.921875 56.609375 -12.4375 51.109375 -7.21875 C 45.609375 -2 38.753906 0.609375 30.546875 0.609375 C 22.335938 0.609375 15.5 -1.984375 10.03125 -7.171875 C 4.5625 -12.367188 1.828125 -18.867188 1.828125 -26.671875 C 1.828125 -34.421875 4.5625 -40.851562 10.03125 -45.96875 C 15.5 -51.09375 22.335938 -53.65625 30.546875 -53.65625 Z M 30.703125 -42.328125 C 26.546875 -42.328125 23 -40.816406 20.0625 -37.796875 C 17.125 -34.785156 15.65625 -31.050781 15.65625 -26.59375 C 15.65625 -22.132812 17.132812 -18.375 20.09375 -15.3125 C 23.0625 -12.25 26.597656 -10.71875 30.703125 -10.71875 C 34.804688 -10.71875 38.289062 -12.25 41.15625 -15.3125 C 44.019531 -18.375 45.453125 -22.132812 45.453125 -26.59375 C 45.453125 -31.050781 44.019531 -34.785156 41.15625 -37.796875 C 38.289062 -40.816406 34.804688 -42.328125 30.703125 -42.328125 Z M 30.703125 -42.328125 "/></g></g></g><g fill="#0a57a2" fill-opacity="1"><g transform="translate(863.274629, 164.631109)"><g><path d="M 54.421875 0 L 42.484375 0 L 18.015625 -32.75 L 18.015625 0 L 5.3125 0 L 5.3125 -53.203125 L 17.25 -53.203125 L 41.796875 -20.375 L 41.796875 -53.203125 L 54.421875 -53.203125 Z M 54.421875 0 "/></g></g></g><g fill="#0a57a2" fill-opacity="1"><g transform="translate(921.86755, 164.631109)"><g><path d="M 18.84375 0 L 5.3125 0 L 5.3125 -53.203125 L 18.84375 -53.203125 Z M 18.84375 0 "/></g></g></g><g fill="#0a57a2" fill-opacity="1"><g transform="translate(944.894343, 164.631109)"><g><path d="M 54.421875 0 L 42.484375 0 L 18.015625 -32.75 L 18.015625 0 L 5.3125 0 L 5.3125 -53.203125 L 17.25 -53.203125 L 41.796875 -20.375 L 41.796875 -53.203125 L 54.421875 -53.203125 Z M 54.421875 0 "/></g></g></g><g fill="#0a57a2" fill-opacity="1"><g transform="translate(1003.487264, 164.631109)"><g><path d="M 40.65625 -27.0625 L 52.359375 -27.0625 L 52.359375 -6.3125 C 49.472656 -4.28125 45.988281 -2.617188 41.90625 -1.328125 C 37.832031 -0.0351562 33.945312 0.609375 30.25 0.609375 C 22.144531 0.609375 15.378906 -1.984375 9.953125 -7.171875 C 4.535156 -12.367188 1.828125 -18.84375 1.828125 -26.59375 C 1.828125 -34.300781 4.613281 -40.738281 10.1875 -45.90625 C 15.757812 -51.070312 22.75 -53.65625 31.15625 -53.65625 C 35.113281 -53.65625 39.039062 -52.945312 42.9375 -51.53125 C 46.84375 -50.113281 50.160156 -48.1875 52.890625 -45.75 L 45.296875 -36.5625 C 43.367188 -38.332031 41.140625 -39.734375 38.609375 -40.765625 C 36.078125 -41.804688 33.566406 -42.328125 31.078125 -42.328125 C 26.722656 -42.328125 23.0625 -40.816406 20.09375 -37.796875 C 17.132812 -34.785156 15.65625 -31.050781 15.65625 -26.59375 C 15.65625 -22.09375 17.148438 -18.320312 20.140625 -15.28125 C 23.128906 -12.238281 26.828125 -10.71875 31.234375 -10.71875 C 34.066406 -10.71875 37.207031 -11.578125 40.65625 -13.296875 Z M 40.65625 -27.0625 "/></g></g></g><g fill="#0a57a2" fill-opacity="1"><g transform="translate(1058.812394, 164.631109)"><g/></g></g><g fill="#0a57a2" fill-opacity="1"><g transform="translate(1075.303512, 164.631109)"><g><path d="M 5.3125 -53.203125 L 28.5 -53.203125 C 35.289062 -53.203125 40.5625 -51.59375 44.3125 -48.375 C 48.0625 -45.15625 49.9375 -40.582031 49.9375 -34.65625 C 49.9375 -28.425781 48.0625 -23.585938 44.3125 -20.140625 C 40.5625 -16.691406 35.289062 -14.96875 28.5 -14.96875 L 18.84375 -14.96875 L 18.84375 0 L 5.3125 0 Z M 18.84375 -42.5625 L 18.84375 -25.609375 L 27.8125 -25.609375 C 30.800781 -25.609375 33.101562 -26.34375 34.71875 -27.8125 C 36.34375 -29.28125 37.15625 -31.410156 37.15625 -34.203125 C 37.15625 -36.929688 36.34375 -39.003906 34.71875 -40.421875 C 33.101562 -41.847656 30.800781 -42.5625 27.8125 -42.5625 Z M 18.84375 -42.5625 "/></g></g></g><g fill="#0a57a2" fill-opacity="1"><g transform="translate(1125.840893, 164.631109)"><g><path d="M 34.578125 0 L 20.59375 0 L -0.078125 -53.203125 L 14.359375 -53.203125 L 27.96875 -14.0625 L 41.578125 -53.203125 L 55.484375 -53.203125 Z M 34.578125 0 "/></g></g></g><g fill="#0a57a2" fill-opacity="1"><g transform="translate(1180.102088, 164.631109)"><g><path d="M 45.984375 -42.328125 L 29.9375 -42.328125 L 29.9375 0 L 16.421875 0 L 16.421875 -42.328125 L 0.53125 -42.328125 L 0.53125 -53.28125 L 45.984375 -53.28125 Z M 45.984375 -42.328125 "/></g></g></g><g fill="#0a57a2" fill-opacity="1"><g transform="translate(1225.395694, 164.631109)"><g><path d="M 4.640625 -10.328125 C 5.804688 -11.492188 7.328125 -12.078125 9.203125 -12.078125 C 11.078125 -12.078125 12.609375 -11.492188 13.796875 -10.328125 C 14.984375 -9.171875 15.578125 -7.65625 15.578125 -5.78125 C 15.578125 -3.90625 14.984375 -2.367188 13.796875 -1.171875 C 12.609375 0.015625 11.078125 0.609375 9.203125 0.609375 C 7.328125 0.609375 5.804688 0.015625 4.640625 -1.171875 C 3.472656 -2.367188 2.890625 -3.90625 2.890625 -5.78125 C 2.890625 -7.65625 3.472656 -9.171875 4.640625 -10.328125 Z M 4.640625 -10.328125 "/></g></g></g><g fill="#0a57a2" fill-opacity="1"><g transform="translate(1242.72278, 164.631109)"><g/></g></g><g fill="#0a57a2" fill-opacity="1"><g transform="translate(1259.213898, 164.631109)"><g><path d="M 18.84375 -11.328125 L 41.421875 -11.328125 L 41.421875 0 L 5.3125 0 L 5.3125 -53.203125 L 18.84375 -53.203125 Z M 18.84375 -11.328125 "/></g></g></g><g fill="#0a57a2" fill-opacity="1"><g transform="translate(1300.631711, 164.631109)"><g><path d="M 45.984375 -42.328125 L 29.9375 -42.328125 L 29.9375 0 L 16.421875 0 L 16.421875 -42.328125 L 0.53125 -42.328125 L 0.53125 -53.28125 L 45.984375 -53.28125 Z M 45.984375 -42.328125 "/></g></g></g><g fill="#0a57a2" fill-opacity="1"><g transform="translate(1345.925317, 164.631109)"><g><path d="M 5.3125 -53.203125 L 28.203125 -53.203125 C 36.554688 -53.203125 43.351562 -50.742188 48.59375 -45.828125 C 53.84375 -40.910156 56.46875 -34.5 56.46875 -26.59375 C 56.46875 -18.738281 53.804688 -12.34375 48.484375 -7.40625 C 43.171875 -2.46875 36.226562 0 27.65625 0 L 5.3125 0 Z M 18.84375 -42.40625 L 18.84375 -10.796875 L 28.5 -10.796875 C 32.65625 -10.796875 36.0625 -12.25 38.71875 -15.15625 C 41.382812 -18.070312 42.71875 -21.859375 42.71875 -26.515625 C 42.71875 -31.179688 41.320312 -34.992188 38.53125 -37.953125 C 35.75 -40.921875 32.203125 -42.40625 27.890625 -42.40625 Z M 18.84375 -42.40625 "/></g></g></g><g fill="#0a57a2" fill-opacity="1"><g transform="translate(1403.07436, 164.631109)"><g><path d="M 4.640625 -10.328125 C 5.804688 -11.492188 7.328125 -12.078125 9.203125 -12.078125 C 11.078125 -12.078125 12.609375 -11.492188 13.796875 -10.328125 C 14.984375 -9.171875 15.578125 -7.65625 15.578125 -5.78125 C 15.578125 -3.90625 14.984375 -2.367188 13.796875 -1.171875 C 12.609375 0.015625 11.078125 0.609375 9.203125 0.609375 C 7.328125 0.609375 5.804688 0.015625 4.640625 -1.171875 C 3.472656 -2.367188 2.890625 -3.90625 2.890625 -5.78125 C 2.890625 -7.65625 3.472656 -9.171875 4.640625 -10.328125 Z M 4.640625 -10.328125 "/></g></g></g><g fill="#00a6a6" fill-opacity="1"><g transform="translate(29.250024, 207.877719)"><g><path d="M 23.3125 0 L 19.84375 0 L 15.078125 -15.6875 L 10.25 0 L 6.75 0 L 0.09375 -20.109375 L 3.734375 -20.109375 L 8.609375 -3.765625 L 13.46875 -20.078125 L 16.796875 -20.109375 L 21.6875 -3.765625 L 26.53125 -20.109375 L 30.046875 -20.109375 Z M 23.3125 0 "/></g></g></g><g fill="#00a6a6" fill-opacity="1"><g transform="translate(58.994521, 207.877719)"><g><path d="M 17 -17.0625 L 6.03125 -17.0625 L 6.03125 -11.625 L 15.859375 -11.625 L 15.859375 -8.59375 L 6.03125 -8.59375 L 6.03125 -3.046875 L 17.34375 -3.046875 L 17.34375 0 L 2.640625 0 L 2.640625 -20.109375 L 17 -20.109375 Z M 17 -17.0625 "/></g></g></g><g fill="#00a6a6" fill-opacity="1"><g transform="translate(77.828874, 207.877719)"><g/></g></g><g fill="#00a6a6" fill-opacity="1"><g transform="translate(85.236291, 207.877719)"><g><path d="M 15.625 -4.53125 L 5.484375 -4.53125 L 3.5625 0 L 0.03125 0 L 8.90625 -20.109375 L 12.375 -20.109375 L 21.171875 0 L 17.546875 0 Z M 14.328125 -7.546875 L 10.546875 -16.484375 L 6.75 -7.546875 Z M 14.328125 -7.546875 "/></g></g></g><g fill="#00a6a6" fill-opacity="1"><g transform="translate(106.424934, 207.877719)"><g><path d="M 15.390625 0 L 11.71875 -6.09375 C 11.53125 -6.070312 11.222656 -6.0625 10.796875 -6.0625 L 6.03125 -6.0625 L 6.03125 0 L 2.640625 0 L 2.640625 -20.109375 L 10.796875 -20.109375 C 13.359375 -20.109375 15.347656 -19.507812 16.765625 -18.3125 C 18.179688 -17.113281 18.890625 -15.421875 18.890625 -13.234375 C 18.890625 -11.628906 18.53125 -10.269531 17.8125 -9.15625 C 17.101562 -8.050781 16.078125 -7.238281 14.734375 -6.71875 L 19.234375 0 Z M 6.03125 -9.109375 L 10.796875 -9.109375 C 14.054688 -9.109375 15.6875 -10.457031 15.6875 -13.15625 C 15.6875 -15.757812 14.054688 -17.0625 10.796875 -17.0625 L 6.03125 -17.0625 Z M 6.03125 -9.109375 "/></g></g></g><g fill="#00a6a6" fill-opacity="1"><g transform="translate(127.182913, 207.877719)"><g><path d="M 17 -17.0625 L 6.03125 -17.0625 L 6.03125 -11.625 L 15.859375 -11.625 L 15.859375 -8.59375 L 6.03125 -8.59375 L 6.03125 -3.046875 L 17.34375 -3.046875 L 17.34375 0 L 2.640625 0 L 2.640625 -20.109375 L 17 -20.109375 Z M 17 -17.0625 "/></g></g></g><g fill="#00a6a6" fill-opacity="1"><g transform="translate(146.017266, 207.877719)"><g/></g></g><g fill="#00a6a6" fill-opacity="1"><g transform="translate(153.424683, 207.877719)"><g><path d="M 23.3125 0 L 19.84375 0 L 15.078125 -15.6875 L 10.25 0 L 6.75 0 L 0.09375 -20.109375 L 3.734375 -20.109375 L 8.609375 -3.765625 L 13.46875 -20.078125 L 16.796875 -20.109375 L 21.6875 -3.765625 L 26.53125 -20.109375 L 30.046875 -20.109375 Z M 23.3125 0 "/></g></g></g><g fill="#00a6a6" fill-opacity="1"><g transform="translate(183.169179, 207.877719)"><g><path d="M 6.03125 0 L 2.640625 0 L 2.640625 -20.109375 L 6.03125 -20.109375 Z M 6.03125 0 "/></g></g></g><g fill="#00a6a6" fill-opacity="1"><g transform="translate(191.839875, 207.877719)"><g><path d="M 16.375 -17.0625 L 10 -17.0625 L 10 0 L 6.609375 0 L 6.609375 -17.0625 L 0.265625 -17.0625 L 0.265625 -20.109375 L 16.375 -20.109375 Z M 16.375 -17.0625 "/></g></g></g><g fill="#00a6a6" fill-opacity="1"><g transform="translate(208.463481, 207.877719)"><g><path d="M 20.078125 0 L 16.6875 0 L 16.6875 -8.328125 L 6.03125 -8.328125 L 6.03125 0 L 2.640625 0 L 2.640625 -20.109375 L 6.03125 -20.109375 L 6.03125 -11.375 L 16.6875 -11.375 L 16.6875 -20.109375 L 20.078125 -20.109375 Z M 20.078125 0 "/></g></g></g><g fill="#00a6a6" fill-opacity="1"><g transform="translate(231.173799, 207.877719)"><g/></g></g><g fill="#00a6a6" fill-opacity="1"><g transform="translate(238.581215, 207.877719)"><g><path d="M 10.890625 -6.6875 L 10.890625 0 L 7.53125 0 L 7.53125 -6.578125 L 0.03125 -20.109375 L 3.453125 -20.109375 L 9.1875 -10.3125 L 14.8125 -20.109375 L 18.265625 -20.109375 Z M 10.890625 -6.6875 "/></g></g></g><g fill="#00a6a6" fill-opacity="1"><g transform="translate(256.870063, 207.877719)"><g><path d="M 4.046875 -17.265625 C 6.097656 -19.210938 8.625 -20.1875 11.625 -20.1875 C 14.632812 -20.1875 17.160156 -19.210938 19.203125 -17.265625 C 21.253906 -15.328125 22.28125 -12.921875 22.28125 -10.046875 C 22.28125 -7.179688 21.253906 -4.765625 19.203125 -2.796875 C 17.160156 -0.835938 14.632812 0.140625 11.625 0.140625 C 8.625 0.140625 6.097656 -0.835938 4.046875 -2.796875 C 1.992188 -4.765625 0.96875 -7.179688 0.96875 -10.046875 C 0.96875 -12.921875 1.992188 -15.328125 4.046875 -17.265625 Z M 11.65625 -17.140625 C 9.664062 -17.140625 7.960938 -16.453125 6.546875 -15.078125 C 5.128906 -13.710938 4.421875 -12.035156 4.421875 -10.046875 C 4.421875 -8.054688 5.132812 -6.367188 6.5625 -4.984375 C 7.988281 -3.597656 9.6875 -2.90625 11.65625 -2.90625 C 13.632812 -2.90625 15.320312 -3.597656 16.71875 -4.984375 C 18.113281 -6.367188 18.8125 -8.054688 18.8125 -10.046875 C 18.8125 -12.035156 18.113281 -13.710938 16.71875 -15.078125 C 15.320312 -16.453125 13.632812 -17.140625 11.65625 -17.140625 Z M 11.65625 -17.140625 "/></g></g></g><g fill="#00a6a6" fill-opacity="1"><g transform="translate(280.125874, 207.877719)"><g><path d="M 19.734375 -20.109375 L 19.734375 -8.328125 C 19.734375 -5.703125 18.957031 -3.632812 17.40625 -2.125 C 15.851562 -0.613281 13.71875 0.140625 11 0.140625 C 8.28125 0.140625 6.140625 -0.613281 4.578125 -2.125 C 3.015625 -3.632812 2.234375 -5.703125 2.234375 -8.328125 L 2.234375 -20.109375 L 5.625 -20.109375 L 5.625 -8.328125 C 5.625 -6.640625 6.109375 -5.3125 7.078125 -4.34375 C 8.046875 -3.382812 9.363281 -2.90625 11.03125 -2.90625 C 12.675781 -2.90625 13.972656 -3.378906 14.921875 -4.328125 C 15.867188 -5.285156 16.34375 -6.617188 16.34375 -8.328125 L 16.34375 -20.109375 Z M 19.734375 -20.109375 "/></g></g></g><g fill="#00a6a6" fill-opacity="1"><g transform="translate(302.060992, 207.877719)"><g><path d="M 3.125 -3.46875 C 3.601562 -3.46875 4.015625 -3.300781 4.359375 -2.96875 C 4.703125 -2.632812 4.875 -2.191406 4.875 -1.640625 C 4.875 -1.117188 4.703125 -0.609375 4.359375 -0.109375 L 2.734375 2.359375 L 1.03125 2.359375 L 2.125 -0.140625 C 1.601562 -0.484375 1.34375 -0.984375 1.34375 -1.640625 C 1.34375 -2.171875 1.507812 -2.609375 1.84375 -2.953125 C 2.1875 -3.296875 2.613281 -3.46875 3.125 -3.46875 Z M 3.125 -3.46875 "/></g></g></g><g fill="#00a6a6" fill-opacity="1"><g transform="translate(308.205141, 207.877719)"><g/></g></g><g fill="#00a6a6" fill-opacity="1"><g transform="translate(315.612558, 207.877719)"><g><path d="M 15.625 -4.53125 L 5.484375 -4.53125 L 3.5625 0 L 0.03125 0 L 8.90625 -20.109375 L 12.375 -20.109375 L 21.171875 0 L 17.546875 0 Z M 14.328125 -7.546875 L 10.546875 -16.484375 L 6.75 -7.546875 Z M 14.328125 -7.546875 "/></g></g></g><g fill="#00a6a6" fill-opacity="1"><g transform="translate(336.801201, 207.877719)"><g><path d="M 11.546875 -20.1875 C 12.960938 -20.1875 14.34375 -19.910156 15.6875 -19.359375 C 17.039062 -18.816406 18.207031 -18.0625 19.1875 -17.09375 L 17.203125 -14.625 C 16.472656 -15.40625 15.609375 -16.023438 14.609375 -16.484375 C 13.617188 -16.941406 12.617188 -17.171875 11.609375 -17.171875 C 9.597656 -17.171875 7.894531 -16.484375 6.5 -15.109375 C 5.113281 -13.742188 4.421875 -12.078125 4.421875 -10.109375 C 4.421875 -8.117188 5.113281 -6.4375 6.5 -5.0625 C 7.894531 -3.695312 9.597656 -3.015625 11.609375 -3.015625 C 13.691406 -3.015625 15.554688 -3.8125 17.203125 -5.40625 L 19.21875 -3.15625 C 18.175781 -2.144531 16.96875 -1.34375 15.59375 -0.75 C 14.21875 -0.15625 12.832031 0.140625 11.4375 0.140625 C 8.476562 0.140625 5.992188 -0.835938 3.984375 -2.796875 C 1.972656 -4.765625 0.96875 -7.191406 0.96875 -10.078125 C 0.96875 -12.929688 1.988281 -15.328125 4.03125 -17.265625 C 6.070312 -19.210938 8.578125 -20.1875 11.546875 -20.1875 Z M 11.546875 -20.1875 "/></g></g></g><g fill="#00a6a6" fill-opacity="1"><g transform="translate(356.812681, 207.877719)"><g><path d="M 15.390625 0 L 11.71875 -6.09375 C 11.53125 -6.070312 11.222656 -6.0625 10.796875 -6.0625 L 6.03125 -6.0625 L 6.03125 0 L 2.640625 0 L 2.640625 -20.109375 L 10.796875 -20.109375 C 13.359375 -20.109375 15.347656 -19.507812 16.765625 -18.3125 C 18.179688 -17.113281 18.890625 -15.421875 18.890625 -13.234375 C 18.890625 -11.628906 18.53125 -10.269531 17.8125 -9.15625 C 17.101562 -8.050781 16.078125 -7.238281 14.734375 -6.71875 L 19.234375 0 Z M 6.03125 -9.109375 L 10.796875 -9.109375 C 14.054688 -9.109375 15.6875 -10.457031 15.6875 -13.15625 C 15.6875 -15.757812 14.054688 -17.0625 10.796875 -17.0625 L 6.03125 -17.0625 Z M 6.03125 -9.109375 "/></g></g></g><g fill="#00a6a6" fill-opacity="1"><g transform="translate(377.57066, 207.877719)"><g><path d="M 4.046875 -17.265625 C 6.097656 -19.210938 8.625 -20.1875 11.625 -20.1875 C 14.632812 -20.1875 17.160156 -19.210938 19.203125 -17.265625 C 21.253906 -15.328125 22.28125 -12.921875 22.28125 -10.046875 C 22.28125 -7.179688 21.253906 -4.765625 19.203125 -2.796875 C 17.160156 -0.835938 14.632812 0.140625 11.625 0.140625 C 8.625 0.140625 6.097656 -0.835938 4.046875 -2.796875 C 1.992188 -4.765625 0.96875 -7.179688 0.96875 -10.046875 C 0.96875 -12.921875 1.992188 -15.328125 4.046875 -17.265625 Z M 11.65625 -17.140625 C 9.664062 -17.140625 7.960938 -16.453125 6.546875 -15.078125 C 5.128906 -13.710938 4.421875 -12.035156 4.421875 -10.046875 C 4.421875 -8.054688 5.132812 -6.367188 6.5625 -4.984375 C 7.988281 -3.597656 9.6875 -2.90625 11.65625 -2.90625 C 13.632812 -2.90625 15.320312 -3.597656 16.71875 -4.984375 C 18.113281 -6.367188 18.8125 -8.054688 18.8125 -10.046875 C 18.8125 -12.035156 18.113281 -13.710938 16.71875 -15.078125 C 15.320312 -16.453125 13.632812 -17.140625 11.65625 -17.140625 Z M 11.65625 -17.140625 "/></g></g></g><g fill="#00a6a6" fill-opacity="1"><g transform="translate(400.826471, 207.877719)"><g><path d="M 9.25 -20.25 C 11.851562 -20.25 14.195312 -19.554688 16.28125 -18.171875 L 14.875 -15.1875 C 12.820312 -16.4375 10.859375 -17.0625 8.984375 -17.0625 C 7.972656 -17.0625 7.175781 -16.878906 6.59375 -16.515625 C 6.007812 -16.148438 5.71875 -15.628906 5.71875 -14.953125 C 5.71875 -14.285156 5.984375 -13.71875 6.515625 -13.25 C 7.054688 -12.78125 7.726562 -12.4375 8.53125 -12.21875 C 9.332031 -12 10.203125 -11.722656 11.140625 -11.390625 C 12.078125 -11.054688 12.945312 -10.703125 13.75 -10.328125 C 14.5625 -9.953125 15.226562 -9.363281 15.75 -8.5625 C 16.28125 -7.769531 16.546875 -6.8125 16.546875 -5.6875 C 16.546875 -3.925781 15.84375 -2.519531 14.4375 -1.46875 C 13.03125 -0.414062 11.203125 0.109375 8.953125 0.109375 C 7.421875 0.109375 5.9375 -0.175781 4.5 -0.75 C 3.070312 -1.320312 1.820312 -2.097656 0.75 -3.078125 L 2.21875 -6 C 3.226562 -5.0625 4.335938 -4.335938 5.546875 -3.828125 C 6.765625 -3.328125 7.921875 -3.078125 9.015625 -3.078125 C 10.203125 -3.078125 11.125 -3.289062 11.78125 -3.71875 C 12.445312 -4.144531 12.78125 -4.742188 12.78125 -5.515625 C 12.78125 -6.203125 12.507812 -6.78125 11.96875 -7.25 C 11.4375 -7.71875 10.769531 -8.0625 9.96875 -8.28125 C 9.164062 -8.5 8.289062 -8.765625 7.34375 -9.078125 C 6.40625 -9.398438 5.535156 -9.738281 4.734375 -10.09375 C 3.929688 -10.445312 3.257812 -11.015625 2.71875 -11.796875 C 2.1875 -12.585938 1.921875 -13.535156 1.921875 -14.640625 C 1.921875 -16.347656 2.585938 -17.707031 3.921875 -18.71875 C 5.265625 -19.738281 7.039062 -20.25 9.25 -20.25 Z M 9.25 -20.25 "/></g></g></g><g fill="#00a6a6" fill-opacity="1"><g transform="translate(418.684655, 207.877719)"><g><path d="M 9.25 -20.25 C 11.851562 -20.25 14.195312 -19.554688 16.28125 -18.171875 L 14.875 -15.1875 C 12.820312 -16.4375 10.859375 -17.0625 8.984375 -17.0625 C 7.972656 -17.0625 7.175781 -16.878906 6.59375 -16.515625 C 6.007812 -16.148438 5.71875 -15.628906 5.71875 -14.953125 C 5.71875 -14.285156 5.984375 -13.71875 6.515625 -13.25 C 7.054688 -12.78125 7.726562 -12.4375 8.53125 -12.21875 C 9.332031 -12 10.203125 -11.722656 11.140625 -11.390625 C 12.078125 -11.054688 12.945312 -10.703125 13.75 -10.328125 C 14.5625 -9.953125 15.226562 -9.363281 15.75 -8.5625 C 16.28125 -7.769531 16.546875 -6.8125 16.546875 -5.6875 C 16.546875 -3.925781 15.84375 -2.519531 14.4375 -1.46875 C 13.03125 -0.414062 11.203125 0.109375 8.953125 0.109375 C 7.421875 0.109375 5.9375 -0.175781 4.5 -0.75 C 3.070312 -1.320312 1.820312 -2.097656 0.75 -3.078125 L 2.21875 -6 C 3.226562 -5.0625 4.335938 -4.335938 5.546875 -3.828125 C 6.765625 -3.328125 7.921875 -3.078125 9.015625 -3.078125 C 10.203125 -3.078125 11.125 -3.289062 11.78125 -3.71875 C 12.445312 -4.144531 12.78125 -4.742188 12.78125 -5.515625 C 12.78125 -6.203125 12.507812 -6.78125 11.96875 -7.25 C 11.4375 -7.71875 10.769531 -8.0625 9.96875 -8.28125 C 9.164062 -8.5 8.289062 -8.765625 7.34375 -9.078125 C 6.40625 -9.398438 5.535156 -9.738281 4.734375 -10.09375 C 3.929688 -10.445312 3.257812 -11.015625 2.71875 -11.796875 C 2.1875 -12.585938 1.921875 -13.535156 1.921875 -14.640625 C 1.921875 -16.347656 2.585938 -17.707031 3.921875 -18.71875 C 5.265625 -19.738281 7.039062 -20.25 9.25 -20.25 Z M 9.25 -20.25 "/></g></g></g><g fill="#00a6a6" fill-opacity="1"><g transform="translate(436.542838, 207.877719)"><g/></g></g><g fill="#00a6a6" fill-opacity="1"><g transform="translate(443.950278, 207.877719)"><g><path d="M 9.25 -20.25 C 11.851562 -20.25 14.195312 -19.554688 16.28125 -18.171875 L 14.875 -15.1875 C 12.820312 -16.4375 10.859375 -17.0625 8.984375 -17.0625 C 7.972656 -17.0625 7.175781 -16.878906 6.59375 -16.515625 C 6.007812 -16.148438 5.71875 -15.628906 5.71875 -14.953125 C 5.71875 -14.285156 5.984375 -13.71875 6.515625 -13.25 C 7.054688 -12.78125 7.726562 -12.4375 8.53125 -12.21875 C 9.332031 -12 10.203125 -11.722656 11.140625 -11.390625 C 12.078125 -11.054688 12.945312 -10.703125 13.75 -10.328125 C 14.5625 -9.953125 15.226562 -9.363281 15.75 -8.5625 C 16.28125 -7.769531 16.546875 -6.8125 16.546875 -5.6875 C 16.546875 -3.925781 15.84375 -2.519531 14.4375 -1.46875 C 13.03125 -0.414062 11.203125 0.109375 8.953125 0.109375 C 7.421875 0.109375 5.9375 -0.175781 4.5 -0.75 C 3.070312 -1.320312 1.820312 -2.097656 0.75 -3.078125 L 2.21875 -6 C 3.226562 -5.0625 4.335938 -4.335938 5.546875 -3.828125 C 6.765625 -3.328125 7.921875 -3.078125 9.015625 -3.078125 C 10.203125 -3.078125 11.125 -3.289062 11.78125 -3.71875 C 12.445312 -4.144531 12.78125 -4.742188 12.78125 -5.515625 C 12.78125 -6.203125 12.507812 -6.78125 11.96875 -7.25 C 11.4375 -7.71875 10.769531 -8.0625 9.96875 -8.28125 C 9.164062 -8.5 8.289062 -8.765625 7.34375 -9.078125 C 6.40625 -9.398438 5.535156 -9.738281 4.734375 -10.09375 C 3.929688 -10.445312 3.257812 -11.015625 2.71875 -11.796875 C 2.1875 -12.585938 1.921875 -13.535156 1.921875 -14.640625 C 1.921875 -16.347656 2.585938 -17.707031 3.921875 -18.71875 C 5.265625 -19.738281 7.039062 -20.25 9.25 -20.25 Z M 9.25 -20.25 "/></g></g></g><g fill="#00a6a6" fill-opacity="1"><g transform="translate(461.808461, 207.877719)"><g><path d="M 17 -17.0625 L 6.03125 -17.0625 L 6.03125 -11.625 L 15.859375 -11.625 L 15.859375 -8.59375 L 6.03125 -8.59375 L 6.03125 -3.046875 L 17.34375 -3.046875 L 17.34375 0 L 2.640625 0 L 2.640625 -20.109375 L 17 -20.109375 Z M 17 -17.0625 "/></g></g></g><g fill="#00a6a6" fill-opacity="1"><g transform="translate(480.642826, 207.877719)"><g><path d="M 15.625 -4.53125 L 5.484375 -4.53125 L 3.5625 0 L 0.03125 0 L 8.90625 -20.109375 L 12.375 -20.109375 L 21.171875 0 L 17.546875 0 Z M 14.328125 -7.546875 L 10.546875 -16.484375 L 6.75 -7.546875 Z M 14.328125 -7.546875 "/></g></g></g><g fill="#00a6a6" fill-opacity="1"><g transform="translate(501.831468, 207.877719)"><g><path d="M 9.25 -20.25 C 11.851562 -20.25 14.195312 -19.554688 16.28125 -18.171875 L 14.875 -15.1875 C 12.820312 -16.4375 10.859375 -17.0625 8.984375 -17.0625 C 7.972656 -17.0625 7.175781 -16.878906 6.59375 -16.515625 C 6.007812 -16.148438 5.71875 -15.628906 5.71875 -14.953125 C 5.71875 -14.285156 5.984375 -13.71875 6.515625 -13.25 C 7.054688 -12.78125 7.726562 -12.4375 8.53125 -12.21875 C 9.332031 -12 10.203125 -11.722656 11.140625 -11.390625 C 12.078125 -11.054688 12.945312 -10.703125 13.75 -10.328125 C 14.5625 -9.953125 15.226562 -9.363281 15.75 -8.5625 C 16.28125 -7.769531 16.546875 -6.8125 16.546875 -5.6875 C 16.546875 -3.925781 15.84375 -2.519531 14.4375 -1.46875 C 13.03125 -0.414062 11.203125 0.109375 8.953125 0.109375 C 7.421875 0.109375 5.9375 -0.175781 4.5 -0.75 C 3.070312 -1.320312 1.820312 -2.097656 0.75 -3.078125 L 2.21875 -6 C 3.226562 -5.0625 4.335938 -4.335938 5.546875 -3.828125 C 6.765625 -3.328125 7.921875 -3.078125 9.015625 -3.078125 C 10.203125 -3.078125 11.125 -3.289062 11.78125 -3.71875 C 12.445312 -4.144531 12.78125 -4.742188 12.78125 -5.515625 C 12.78125 -6.203125 12.507812 -6.78125 11.96875 -7.25 C 11.4375 -7.71875 10.769531 -8.0625 9.96875 -8.28125 C 9.164062 -8.5 8.289062 -8.765625 7.34375 -9.078125 C 6.40625 -9.398438 5.535156 -9.738281 4.734375 -10.09375 C 3.929688 -10.445312 3.257812 -11.015625 2.71875 -11.796875 C 2.1875 -12.585938 1.921875 -13.535156 1.921875 -14.640625 C 1.921875 -16.347656 2.585938 -17.707031 3.921875 -18.71875 C 5.265625 -19.738281 7.039062 -20.25 9.25 -20.25 Z M 9.25 -20.25 "/></g></g></g><g fill="#00a6a6" fill-opacity="1"><g transform="translate(519.689652, 207.877719)"><g><path d="M 4.046875 -17.265625 C 6.097656 -19.210938 8.625 -20.1875 11.625 -20.1875 C 14.632812 -20.1875 17.160156 -19.210938 19.203125 -17.265625 C 21.253906 -15.328125 22.28125 -12.921875 22.28125 -10.046875 C 22.28125 -7.179688 21.253906 -4.765625 19.203125 -2.796875 C 17.160156 -0.835938 14.632812 0.140625 11.625 0.140625 C 8.625 0.140625 6.097656 -0.835938 4.046875 -2.796875 C 1.992188 -4.765625 0.96875 -7.179688 0.96875 -10.046875 C 0.96875 -12.921875 1.992188 -15.328125 4.046875 -17.265625 Z M 11.65625 -17.140625 C 9.664062 -17.140625 7.960938 -16.453125 6.546875 -15.078125 C 5.128906 -13.710938 4.421875 -12.035156 4.421875 -10.046875 C 4.421875 -8.054688 5.132812 -6.367188 6.5625 -4.984375 C 7.988281 -3.597656 9.6875 -2.90625 11.65625 -2.90625 C 13.632812 -2.90625 15.320312 -3.597656 16.71875 -4.984375 C 18.113281 -6.367188 18.8125 -8.054688 18.8125 -10.046875 C 18.8125 -12.035156 18.113281 -13.710938 16.71875 -15.078125 C 15.320312 -16.453125 13.632812 -17.140625 11.65625 -17.140625 Z M 11.65625 -17.140625 "/></g></g></g><g fill="#00a6a6" fill-opacity="1"><g transform="translate(542.945463, 207.877719)"><g><path d="M 20.078125 0 L 16.75 0 L 6.03125 -14.421875 L 6.03125 0 L 2.640625 0 L 2.640625 -20.109375 L 5.96875 -20.109375 L 16.75 -5.65625 L 16.75 -20.109375 L 20.078125 -20.109375 Z M 20.078125 0 "/></g></g></g><g fill="#00a6a6" fill-opacity="1"><g transform="translate(565.684506, 207.877719)"><g><path d="M 9.25 -20.25 C 11.851562 -20.25 14.195312 -19.554688 16.28125 -18.171875 L 14.875 -15.1875 C 12.820312 -16.4375 10.859375 -17.0625 8.984375 -17.0625 C 7.972656 -17.0625 7.175781 -16.878906 6.59375 -16.515625 C 6.007812 -16.148438 5.71875 -15.628906 5.71875 -14.953125 C 5.71875 -14.285156 5.984375 -13.71875 6.515625 -13.25 C 7.054688 -12.78125 7.726562 -12.4375 8.53125 -12.21875 C 9.332031 -12 10.203125 -11.722656 11.140625 -11.390625 C 12.078125 -11.054688 12.945312 -10.703125 13.75 -10.328125 C 14.5625 -9.953125 15.226562 -9.363281 15.75 -8.5625 C 16.28125 -7.769531 16.546875 -6.8125 16.546875 -5.6875 C 16.546875 -3.925781 15.84375 -2.519531 14.4375 -1.46875 C 13.03125 -0.414062 11.203125 0.109375 8.953125 0.109375 C 7.421875 0.109375 5.9375 -0.175781 4.5 -0.75 C 3.070312 -1.320312 1.820312 -2.097656 0.75 -3.078125 L 2.21875 -6 C 3.226562 -5.0625 4.335938 -4.335938 5.546875 -3.828125 C 6.765625 -3.328125 7.921875 -3.078125 9.015625 -3.078125 C 10.203125 -3.078125 11.125 -3.289062 11.78125 -3.71875 C 12.445312 -4.144531 12.78125 -4.742188 12.78125 -5.515625 C 12.78125 -6.203125 12.507812 -6.78125 11.96875 -7.25 C 11.4375 -7.71875 10.769531 -8.0625 9.96875 -8.28125 C 9.164062 -8.5 8.289062 -8.765625 7.34375 -9.078125 C 6.40625 -9.398438 5.535156 -9.738281 4.734375 -10.09375 C 3.929688 -10.445312 3.257812 -11.015625 2.71875 -11.796875 C 2.1875 -12.585938 1.921875 -13.535156 1.921875 -14.640625 C 1.921875 -16.347656 2.585938 -17.707031 3.921875 -18.71875 C 5.265625 -19.738281 7.039062 -20.25 9.25 -20.25 Z M 9.25 -20.25 "/></g></g></g><g fill="#00a6a6" fill-opacity="1"><g transform="translate(583.542689, 207.877719)"><g><path d="M 5 -14.90625 L 4.484375 -6.40625 L 2.390625 -6.40625 L 1.859375 -14.90625 L 1.859375 -19.84375 L 5 -19.84375 Z M 2.15625 -3 C 2.5 -3.351562 2.925781 -3.53125 3.4375 -3.53125 C 3.957031 -3.53125 4.390625 -3.351562 4.734375 -3 C 5.078125 -2.644531 5.25 -2.203125 5.25 -1.671875 C 5.25 -1.109375 5.078125 -0.644531 4.734375 -0.28125 C 4.390625 0.0820312 3.957031 0.265625 3.4375 0.265625 C 2.925781 0.265625 2.5 0.0820312 2.15625 -0.28125 C 1.8125 -0.644531 1.640625 -1.109375 1.640625 -1.671875 C 1.640625 -2.203125 1.8125 -2.644531 2.15625 -3 Z M 2.15625 -3 "/></g></g></g></svg>