<svg xmlns="http://www.w3.org/2000/svg" xmlns:xlink="http://www.w3.org/1999/xlink" width="2000" zoomAndPan="magnify" viewBox="0 0 1500 449.999984" height="600" preserveAspectRatio="xMidYMid meet" version="1.0"><defs><g/></defs><g fill="#000000" fill-opacity="1"><g transform="translate(7.405172, 254.501122)"><g><path d="M 25.953125 0.84375 C 21.890625 0.84375 18.273438 0.34375 15.109375 -0.65625 C 11.953125 -1.65625 9.316406 -2.96875 7.203125 -4.59375 C 5.097656 -6.226562 3.484375 -8.019531 2.359375 -9.96875 L 8.734375 -17.75 L 9.734375 -17.75 C 11.492188 -15.125 13.726562 -13.035156 16.4375 -11.484375 C 19.15625 -9.941406 22.328125 -9.171875 25.953125 -9.171875 C 29.046875 -9.171875 31.378906 -9.820312 32.953125 -11.125 C 34.535156 -12.4375 35.328125 -14.242188 35.328125 -16.546875 C 35.328125 -17.929688 35.070312 -19.085938 34.5625 -20.015625 C 34.0625 -20.953125 33.222656 -21.753906 32.046875 -22.421875 C 30.867188 -23.097656 29.28125 -23.675781 27.28125 -24.15625 L 19.75 -25.875 C 14.488281 -27.070312 10.566406 -29.066406 7.984375 -31.859375 C 5.410156 -34.648438 4.125 -38.273438 4.125 -42.734375 C 4.125 -46.046875 4.953125 -48.957031 6.609375 -51.46875 C 8.265625 -53.976562 10.671875 -55.925781 13.828125 -57.3125 C 16.992188 -58.707031 20.78125 -59.40625 25.1875 -59.40625 C 29.707031 -59.40625 33.570312 -58.804688 36.78125 -57.609375 C 40 -56.421875 42.71875 -54.601562 44.9375 -52.15625 L 39.21875 -44.296875 L 38.21875 -44.296875 C 36.5625 -46.035156 34.660156 -47.335938 32.515625 -48.203125 C 30.378906 -49.066406 27.9375 -49.5 25.1875 -49.5 C 22.007812 -49.5 19.59375 -48.9375 17.9375 -47.8125 C 16.289062 -46.695312 15.46875 -45.148438 15.46875 -43.171875 C 15.46875 -41.335938 16.046875 -39.867188 17.203125 -38.765625 C 18.367188 -37.671875 20.378906 -36.816406 23.234375 -36.203125 L 30.921875 -34.609375 C 36.609375 -33.398438 40.734375 -31.359375 43.296875 -28.484375 C 45.859375 -25.617188 47.140625 -21.878906 47.140625 -17.265625 C 47.140625 -13.609375 46.351562 -10.421875 44.78125 -7.703125 C 43.207031 -4.992188 40.832031 -2.890625 37.65625 -1.390625 C 34.476562 0.0976562 30.578125 0.84375 25.953125 0.84375 Z M 25.953125 0.84375 "/></g></g></g><g fill="#000000" fill-opacity="1"><g transform="translate(56.889894, 254.501122)"><g><path d="M 32.078125 0 L 20.515625 0 L 20.515625 -22.984375 L 0.28125 -58.5625 L 12.703125 -58.5625 L 26.078125 -35.53125 L 27.078125 -35.53125 L 40.171875 -58.5625 L 52.3125 -58.5625 L 32.078125 -22.984375 Z M 32.078125 0 "/></g></g></g><g fill="#000000" fill-opacity="1"><g transform="translate(108.65757, 254.501122)"><g><path d="M 25.953125 0.84375 C 21.890625 0.84375 18.273438 0.34375 15.109375 -0.65625 C 11.953125 -1.65625 9.316406 -2.96875 7.203125 -4.59375 C 5.097656 -6.226562 3.484375 -8.019531 2.359375 -9.96875 L 8.734375 -17.75 L 9.734375 -17.75 C 11.492188 -15.125 13.726562 -13.035156 16.4375 -11.484375 C 19.15625 -9.941406 22.328125 -9.171875 25.953125 -9.171875 C 29.046875 -9.171875 31.378906 -9.820312 32.953125 -11.125 C 34.535156 -12.4375 35.328125 -14.242188 35.328125 -16.546875 C 35.328125 -17.929688 35.070312 -19.085938 34.5625 -20.015625 C 34.0625 -20.953125 33.222656 -21.753906 32.046875 -22.421875 C 30.867188 -23.097656 29.28125 -23.675781 27.28125 -24.15625 L 19.75 -25.875 C 14.488281 -27.070312 10.566406 -29.066406 7.984375 -31.859375 C 5.410156 -34.648438 4.125 -38.273438 4.125 -42.734375 C 4.125 -46.046875 4.953125 -48.957031 6.609375 -51.46875 C 8.265625 -53.976562 10.671875 -55.925781 13.828125 -57.3125 C 16.992188 -58.707031 20.78125 -59.40625 25.1875 -59.40625 C 29.707031 -59.40625 33.570312 -58.804688 36.78125 -57.609375 C 40 -56.421875 42.71875 -54.601562 44.9375 -52.15625 L 39.21875 -44.296875 L 38.21875 -44.296875 C 36.5625 -46.035156 34.660156 -47.335938 32.515625 -48.203125 C 30.378906 -49.066406 27.9375 -49.5 25.1875 -49.5 C 22.007812 -49.5 19.59375 -48.9375 17.9375 -47.8125 C 16.289062 -46.695312 15.46875 -45.148438 15.46875 -43.171875 C 15.46875 -41.335938 16.046875 -39.867188 17.203125 -38.765625 C 18.367188 -37.671875 20.378906 -36.816406 23.234375 -36.203125 L 30.921875 -34.609375 C 36.609375 -33.398438 40.734375 -31.359375 43.296875 -28.484375 C 45.859375 -25.617188 47.140625 -21.878906 47.140625 -17.265625 C 47.140625 -13.609375 46.351562 -10.421875 44.78125 -7.703125 C 43.207031 -4.992188 40.832031 -2.890625 37.65625 -1.390625 C 34.476562 0.0976562 30.578125 0.84375 25.953125 0.84375 Z M 25.953125 0.84375 "/></g></g></g><g fill="#000000" fill-opacity="1"><g transform="translate(158.142297, 254.501122)"><g><path d="M 46.9375 -58.5625 L 46.9375 -48.828125 L 30.046875 -48.828125 L 30.046875 0 L 18.5 0 L 18.5 -48.828125 L 1.609375 -48.828125 L 1.609375 -58.5625 Z M 46.9375 -58.5625 "/></g></g></g><g fill="#000000" fill-opacity="1"><g transform="translate(205.864742, 254.501122)"><g><path d="M 19.1875 -25.71875 L 19.1875 -9.6875 L 47.140625 -9.6875 L 47.140625 0 L 7.609375 0 L 7.609375 -58.5625 L 46.5 -58.5625 L 46.5 -48.859375 L 19.1875 -48.859375 L 19.1875 -35.171875 L 43.0625 -35.171875 L 43.0625 -25.71875 Z M 19.1875 -25.71875 "/></g></g></g><g fill="#000000" fill-opacity="1"><g transform="translate(255.389509, 254.501122)"><g><path d="M 18.21875 0 L 7.609375 0 L 7.609375 -58.5625 L 22.75 -58.5625 L 37.578125 -15.5 L 38.40625 -15.5 L 53.15625 -58.5625 L 67.9375 -58.5625 L 67.9375 0 L 56.953125 0 L 56.953125 -38.6875 L 55.953125 -38.859375 L 42.421875 0 L 32.765625 0 L 19.21875 -38.859375 L 18.21875 -38.6875 Z M 18.21875 0 "/></g></g></g><g fill="#000000" fill-opacity="1"><g transform="translate(330.146943, 254.501122)"><g/></g></g><g fill="#000000" fill-opacity="1"><g transform="translate(348.671578, 254.501122)"><g><path d="M 56.203125 0 L 44.015625 0 L 39.609375 -13.5 L 17.1875 -13.5 L 12.78125 0 L 0.875 0 L 21.109375 -58.5625 L 35.96875 -58.5625 Z M 27.84375 -46.34375 L 20.3125 -23.234375 L 36.40625 -23.234375 L 28.84375 -46.34375 Z M 27.84375 -46.34375 "/></g></g></g><g fill="#000000" fill-opacity="1"><g transform="translate(404.925079, 254.501122)"><g><path d="M 19.1875 0 L 7.609375 0 L 7.609375 -58.5625 L 19.1875 -58.5625 Z M 19.1875 0 "/></g></g></g><g fill="#000000" fill-opacity="1"><g transform="translate(430.939422, 254.501122)"><g><path d="M 7.609375 0 L 7.609375 -58.5625 L 31.125 -58.5625 C 37.1875 -58.5625 41.757812 -57.164062 44.84375 -54.375 C 47.925781 -51.582031 49.46875 -47.726562 49.46875 -42.8125 C 49.46875 -39.257812 48.566406 -36.347656 46.765625 -34.078125 C 44.960938 -31.816406 42.269531 -30.082031 38.6875 -28.875 L 38.6875 -28.03125 C 40.53125 -27.238281 42.019531 -26.050781 43.15625 -24.46875 C 44.289062 -22.894531 45.367188 -20.5625 46.390625 -17.46875 L 52.234375 0 L 40.328125 0 L 34.609375 -17.5 C 34.015625 -19.257812 33.347656 -20.628906 32.609375 -21.609375 C 31.878906 -22.585938 30.945312 -23.296875 29.8125 -23.734375 C 28.6875 -24.171875 27.210938 -24.390625 25.390625 -24.390625 L 19.1875 -24.390625 L 19.1875 0 Z M 29.71875 -33.5625 C 35.320312 -33.5625 38.125 -36.179688 38.125 -41.421875 C 38.125 -46.734375 35.320312 -49.390625 29.71875 -49.390625 L 19.1875 -49.390625 L 19.1875 -33.5625 Z M 29.71875 -33.5625 "/></g></g></g><g fill="#000000" fill-opacity="1"><g transform="translate(484.869916, 254.501122)"><g><path d="M 32 0.84375 C 26.601562 0.84375 21.847656 -0.273438 17.734375 -2.515625 C 13.628906 -4.765625 10.414062 -8.140625 8.09375 -12.640625 C 5.769531 -17.140625 4.609375 -22.6875 4.609375 -29.28125 C 4.609375 -35.875 5.769531 -41.421875 8.09375 -45.921875 C 10.414062 -50.421875 13.628906 -53.789062 17.734375 -56.03125 C 21.847656 -58.28125 26.601562 -59.40625 32 -59.40625 C 37.632812 -59.40625 42.421875 -58.300781 46.359375 -56.09375 C 50.296875 -53.894531 53.109375 -50.535156 54.796875 -46.015625 L 46.34375 -40.859375 L 45.34375 -40.890625 C 44.082031 -43.941406 42.378906 -46.125 40.234375 -47.4375 C 38.085938 -48.757812 35.34375 -49.421875 32 -49.421875 C 27.144531 -49.421875 23.351562 -47.8125 20.625 -44.59375 C 17.90625 -41.382812 16.546875 -36.28125 16.546875 -29.28125 C 16.546875 -22.3125 17.90625 -17.21875 20.625 -14 C 23.351562 -10.78125 27.144531 -9.171875 32 -9.171875 C 39.613281 -9.171875 44.273438 -12.867188 45.984375 -20.265625 L 46.984375 -20.265625 L 55.515625 -15.828125 C 53.910156 -10.265625 51.171875 -6.09375 47.296875 -3.3125 C 43.429688 -0.539062 38.332031 0.84375 32 0.84375 Z M 32 0.84375 "/></g></g></g><g fill="#000000" fill-opacity="1"><g transform="translate(541.483872, 254.501122)"><g><path d="M 31.921875 0.84375 C 26.554688 0.84375 21.820312 -0.25 17.71875 -2.4375 C 13.625 -4.632812 10.414062 -7.976562 8.09375 -12.46875 C 5.769531 -16.96875 4.609375 -22.570312 4.609375 -29.28125 C 4.609375 -35.976562 5.769531 -41.578125 8.09375 -46.078125 C 10.414062 -50.578125 13.625 -53.921875 17.71875 -56.109375 C 21.820312 -58.304688 26.554688 -59.40625 31.921875 -59.40625 C 37.285156 -59.40625 42.007812 -58.316406 46.09375 -56.140625 C 50.1875 -53.960938 53.382812 -50.613281 55.6875 -46.09375 C 58 -41.582031 59.15625 -35.976562 59.15625 -29.28125 C 59.15625 -22.570312 58 -16.960938 55.6875 -12.453125 C 53.382812 -7.941406 50.1875 -4.597656 46.09375 -2.421875 C 42.007812 -0.242188 37.285156 0.84375 31.921875 0.84375 Z M 31.921875 -9.21875 C 36.890625 -9.21875 40.679688 -10.8125 43.296875 -14 C 45.910156 -17.1875 47.21875 -22.28125 47.21875 -29.28125 C 47.21875 -36.28125 45.910156 -41.378906 43.296875 -44.578125 C 40.679688 -47.785156 36.890625 -49.390625 31.921875 -49.390625 C 26.929688 -49.390625 23.117188 -47.785156 20.484375 -44.578125 C 17.859375 -41.378906 16.546875 -36.28125 16.546875 -29.28125 C 16.546875 -22.28125 17.859375 -17.1875 20.484375 -14 C 23.117188 -10.8125 26.929688 -9.21875 31.921875 -9.21875 Z M 31.921875 -9.21875 "/></g></g></g><g fill="#000000" fill-opacity="1"><g transform="translate(604.466061, 254.501122)"><g><path d="M 18.828125 0 L 7.609375 0 L 7.609375 -58.5625 L 20.875 -58.5625 L 44.375 -20.828125 L 45.421875 -20.984375 L 45.421875 -58.5625 L 56.5625 -58.5625 L 56.5625 0 L 44.703125 0 L 19.828125 -40.296875 L 18.828125 -40.140625 Z M 18.828125 0 "/></g></g></g><g fill="#000000" fill-opacity="1"><g transform="translate(667.848792, 254.501122)"><g><path d="M 28.671875 -58.5625 C 38.179688 -58.5625 45.4375 -56.101562 50.4375 -51.1875 C 55.445312 -46.269531 57.953125 -38.96875 57.953125 -29.28125 C 57.953125 -19.613281 55.445312 -12.316406 50.4375 -7.390625 C 45.4375 -2.460938 38.179688 0 28.671875 0 L 7.609375 0 L 7.609375 -58.5625 Z M 28 -9.734375 C 34.03125 -9.734375 38.539062 -11.273438 41.53125 -14.359375 C 44.519531 -17.441406 46.015625 -22.414062 46.015625 -29.28125 C 46.015625 -36.144531 44.519531 -41.117188 41.53125 -44.203125 C 38.539062 -47.285156 34.03125 -48.828125 28 -48.828125 L 19.1875 -48.828125 L 19.1875 -9.734375 Z M 28 -9.734375 "/></g></g></g><g fill="#000000" fill-opacity="1"><g transform="translate(729.629448, 254.501122)"><g><path d="M 19.1875 0 L 7.609375 0 L 7.609375 -58.5625 L 19.1875 -58.5625 Z M 19.1875 0 "/></g></g></g><g fill="#000000" fill-opacity="1"><g transform="translate(755.643791, 254.501122)"><g><path d="M 46.9375 -58.5625 L 46.9375 -48.828125 L 30.046875 -48.828125 L 30.046875 0 L 18.5 0 L 18.5 -48.828125 L 1.609375 -48.828125 L 1.609375 -58.5625 Z M 46.9375 -58.5625 "/></g></g></g><g fill="#000000" fill-opacity="1"><g transform="translate(803.36626, 254.501122)"><g><path d="M 19.1875 0 L 7.609375 0 L 7.609375 -58.5625 L 19.1875 -58.5625 Z M 19.1875 0 "/></g></g></g><g fill="#000000" fill-opacity="1"><g transform="translate(829.380602, 254.501122)"><g><path d="M 31.921875 0.84375 C 26.554688 0.84375 21.820312 -0.25 17.71875 -2.4375 C 13.625 -4.632812 10.414062 -7.976562 8.09375 -12.46875 C 5.769531 -16.96875 4.609375 -22.570312 4.609375 -29.28125 C 4.609375 -35.976562 5.769531 -41.578125 8.09375 -46.078125 C 10.414062 -50.578125 13.625 -53.921875 17.71875 -56.109375 C 21.820312 -58.304688 26.554688 -59.40625 31.921875 -59.40625 C 37.285156 -59.40625 42.007812 -58.316406 46.09375 -56.140625 C 50.1875 -53.960938 53.382812 -50.613281 55.6875 -46.09375 C 58 -41.582031 59.15625 -35.976562 59.15625 -29.28125 C 59.15625 -22.570312 58 -16.960938 55.6875 -12.453125 C 53.382812 -7.941406 50.1875 -4.597656 46.09375 -2.421875 C 42.007812 -0.242188 37.285156 0.84375 31.921875 0.84375 Z M 31.921875 -9.21875 C 36.890625 -9.21875 40.679688 -10.8125 43.296875 -14 C 45.910156 -17.1875 47.21875 -22.28125 47.21875 -29.28125 C 47.21875 -36.28125 45.910156 -41.378906 43.296875 -44.578125 C 40.679688 -47.785156 36.890625 -49.390625 31.921875 -49.390625 C 26.929688 -49.390625 23.117188 -47.785156 20.484375 -44.578125 C 17.859375 -41.378906 16.546875 -36.28125 16.546875 -29.28125 C 16.546875 -22.28125 17.859375 -17.1875 20.484375 -14 C 23.117188 -10.8125 26.929688 -9.21875 31.921875 -9.21875 Z M 31.921875 -9.21875 "/></g></g></g><g fill="#000000" fill-opacity="1"><g transform="translate(892.362837, 254.501122)"><g><path d="M 18.828125 0 L 7.609375 0 L 7.609375 -58.5625 L 20.875 -58.5625 L 44.375 -20.828125 L 45.421875 -20.984375 L 45.421875 -58.5625 L 56.5625 -58.5625 L 56.5625 0 L 44.703125 0 L 19.828125 -40.296875 L 18.828125 -40.140625 Z M 18.828125 0 "/></g></g></g><g fill="#000000" fill-opacity="1"><g transform="translate(955.745522, 254.501122)"><g><path d="M 19.1875 0 L 7.609375 0 L 7.609375 -58.5625 L 19.1875 -58.5625 Z M 19.1875 0 "/></g></g></g><g fill="#000000" fill-opacity="1"><g transform="translate(981.759864, 254.501122)"><g><path d="M 18.828125 0 L 7.609375 0 L 7.609375 -58.5625 L 20.875 -58.5625 L 44.375 -20.828125 L 45.421875 -20.984375 L 45.421875 -58.5625 L 56.5625 -58.5625 L 56.5625 0 L 44.703125 0 L 19.828125 -40.296875 L 18.828125 -40.140625 Z M 18.828125 0 "/></g></g></g><g fill="#000000" fill-opacity="1"><g transform="translate(1045.142549, 254.501122)"><g><path d="M 28.4375 0.84375 C 23.550781 0.84375 19.328125 -0.269531 15.765625 -2.5 C 12.203125 -4.726562 9.453125 -8.09375 7.515625 -12.59375 C 5.578125 -17.09375 4.609375 -22.65625 4.609375 -29.28125 C 4.609375 -35.957031 5.769531 -41.546875 8.09375 -46.046875 C 10.414062 -50.546875 13.640625 -53.894531 17.765625 -56.09375 C 21.890625 -58.300781 26.675781 -59.40625 32.125 -59.40625 C 37.726562 -59.40625 42.503906 -58.363281 46.453125 -56.28125 C 50.410156 -54.195312 53.191406 -51.097656 54.796875 -46.984375 L 46.34375 -41.859375 L 45.34375 -41.890625 C 44.132812 -44.515625 42.441406 -46.425781 40.265625 -47.625 C 38.097656 -48.820312 35.382812 -49.421875 32.125 -49.421875 C 27.070312 -49.421875 23.210938 -47.828125 20.546875 -44.640625 C 17.878906 -41.453125 16.546875 -36.332031 16.546875 -29.28125 C 16.546875 -22.207031 17.789062 -17.066406 20.28125 -13.859375 C 22.78125 -10.648438 26.472656 -9.046875 31.359375 -9.046875 C 35.578125 -9.046875 38.6875 -9.992188 40.6875 -11.890625 C 42.695312 -13.785156 43.703125 -16.617188 43.703125 -20.390625 L 43.703125 -22.90625 L 29.84375 -22.90625 L 29.84375 -32.328125 L 55.1875 -32.328125 L 55.1875 0 L 44.140625 0 L 44.140625 -7.84375 L 43.296875 -7.96875 C 42.097656 -5.164062 40.273438 -2.992188 37.828125 -1.453125 C 35.390625 0.078125 32.257812 0.84375 28.4375 0.84375 Z M 28.4375 0.84375 "/></g></g></g><g fill="#000000" fill-opacity="1"><g transform="translate(1105.401211, 254.501122)"><g/></g></g><g fill="#000000" fill-opacity="1"><g transform="translate(1123.925824, 254.501122)"><g><path d="M 30.234375 -58.5625 C 34.429688 -58.5625 38.019531 -57.789062 41 -56.25 C 43.976562 -54.71875 46.226562 -52.566406 47.75 -49.796875 C 49.269531 -47.035156 50.03125 -43.828125 50.03125 -40.171875 C 50.03125 -36.515625 49.269531 -33.3125 47.75 -30.5625 C 46.226562 -27.8125 43.976562 -25.664062 41 -24.125 C 38.019531 -22.59375 34.429688 -21.828125 30.234375 -21.828125 L 19.1875 -21.828125 L 19.1875 0 L 7.609375 0 L 7.609375 -58.5625 Z M 28.71875 -31 C 35.15625 -31 38.375 -34.054688 38.375 -40.171875 C 38.375 -46.316406 35.15625 -49.390625 28.71875 -49.390625 L 19.1875 -49.390625 L 19.1875 -31 Z M 28.71875 -31 "/></g></g></g><g fill="#000000" fill-opacity="1"><g transform="translate(1176.614722, 254.501122)"><g><path d="M 34.8125 0 L 20.828125 0 L 1.046875 -58.5625 L 13.34375 -58.5625 L 27.5625 -14.90625 L 28.5625 -14.90625 L 42.578125 -58.5625 L 54.546875 -58.5625 Z M 34.8125 0 "/></g></g></g><g fill="#000000" fill-opacity="1"><g transform="translate(1231.38627, 254.501122)"><g><path d="M 46.9375 -58.5625 L 46.9375 -48.828125 L 30.046875 -48.828125 L 30.046875 0 L 18.5 0 L 18.5 -48.828125 L 1.609375 -48.828125 L 1.609375 -58.5625 Z M 46.9375 -58.5625 "/></g></g></g><g fill="#000000" fill-opacity="1"><g transform="translate(1279.108692, 254.501122)"><g><path d="M 11.296875 0.359375 C 9.878906 0.359375 8.628906 0.0703125 7.546875 -0.5 C 6.460938 -1.070312 5.632812 -1.863281 5.0625 -2.875 C 4.488281 -3.894531 4.203125 -5.046875 4.203125 -6.328125 C 4.203125 -7.609375 4.488281 -8.753906 5.0625 -9.765625 C 5.632812 -10.785156 6.460938 -11.585938 7.546875 -12.171875 C 8.628906 -12.765625 9.878906 -13.0625 11.296875 -13.0625 C 12.734375 -13.0625 13.992188 -12.769531 15.078125 -12.1875 C 16.160156 -11.613281 16.988281 -10.820312 17.5625 -9.8125 C 18.132812 -8.800781 18.421875 -7.65625 18.421875 -6.375 C 18.421875 -4.414062 17.773438 -2.800781 16.484375 -1.53125 C 15.191406 -0.269531 13.460938 0.359375 11.296875 0.359375 Z M 11.296875 0.359375 "/></g></g></g><g fill="#000000" fill-opacity="1"><g transform="translate(1300.91758, 254.501122)"><g/></g></g><g fill="#000000" fill-opacity="1"><g transform="translate(1319.442192, 254.501122)"><g><path d="M 19.1875 -58.5625 L 19.1875 -9.6875 L 45.5 -9.6875 L 45.5 0 L 7.609375 0 L 7.609375 -58.5625 Z M 19.1875 -58.5625 "/></g></g></g><g fill="#000000" fill-opacity="1"><g transform="translate(1366.04321, 254.501122)"><g><path d="M 46.9375 -58.5625 L 46.9375 -48.828125 L 30.046875 -48.828125 L 30.046875 0 L 18.5 0 L 18.5 -48.828125 L 1.609375 -48.828125 L 1.609375 -58.5625 Z M 46.9375 -58.5625 "/></g></g></g><g fill="#000000" fill-opacity="1"><g transform="translate(1413.765632, 254.501122)"><g><path d="M 28.671875 -58.5625 C 38.179688 -58.5625 45.4375 -56.101562 50.4375 -51.1875 C 55.445312 -46.269531 57.953125 -38.96875 57.953125 -29.28125 C 57.953125 -19.613281 55.445312 -12.316406 50.4375 -7.390625 C 45.4375 -2.460938 38.179688 0 28.671875 0 L 7.609375 0 L 7.609375 -58.5625 Z M 28 -9.734375 C 34.03125 -9.734375 38.539062 -11.273438 41.53125 -14.359375 C 44.519531 -17.441406 46.015625 -22.414062 46.015625 -29.28125 C 46.015625 -36.144531 44.519531 -41.117188 41.53125 -44.203125 C 38.539062 -47.285156 34.03125 -48.828125 28 -48.828125 L 19.1875 -48.828125 L 19.1875 -9.734375 Z M 28 -9.734375 "/></g></g></g><g fill="#000000" fill-opacity="1"><g transform="translate(1475.546242, 254.501122)"><g><path d="M 11.296875 0.359375 C 9.878906 0.359375 8.628906 0.0703125 7.546875 -0.5 C 6.460938 -1.070312 5.632812 -1.863281 5.0625 -2.875 C 4.488281 -3.894531 4.203125 -5.046875 4.203125 -6.328125 C 4.203125 -7.609375 4.488281 -8.753906 5.0625 -9.765625 C 5.632812 -10.785156 6.460938 -11.585938 7.546875 -12.171875 C 8.628906 -12.765625 9.878906 -13.0625 11.296875 -13.0625 C 12.734375 -13.0625 13.992188 -12.769531 15.078125 -12.1875 C 16.160156 -11.613281 16.988281 -10.820312 17.5625 -9.8125 C 18.132812 -8.800781 18.421875 -7.65625 18.421875 -6.375 C 18.421875 -4.414062 17.773438 -2.800781 16.484375 -1.53125 C 15.191406 -0.269531 13.460938 0.359375 11.296875 0.359375 Z M 11.296875 0.359375 "/></g></g></g><g fill="#000000" fill-opacity="1"><g transform="translate(1497.361624, 254.501122)"><g/></g></g></svg>